<?xml version="1.0" encoding="utf-8"?>
<!-- Generator: Adobe Illustrator 19.0.0, SVG Export Plug-In . SVG Version: 6.00 Build 0)  -->
<svg version="1.1" id="Layer_1" xmlns="http://www.w3.org/2000/svg" xmlns:xlink="http://www.w3.org/1999/xlink" x="0px" y="0px"
	 viewBox="0 0 612 792" style="enable-background:new 0 0 612 792;" xml:space="preserve">
<style type="text/css">
	.st0{fill:#EDF0F2;}
	.st1{fill:#E2E2E2;}
	.st2{fill:#C4E0EC;}
	.st3{fill:#F5F7F7;}
	.st4{fill:#DE647C;}
	.st5{fill:#E57691;}
	.st6{fill:#C15874;}
	.st7{fill:#F8BFD1;}
	.st8{fill:#FFD46C;}
	.st9{fill:#FCE2EB;}
	.st10{fill:#EFB1C4;}
	.st11{fill:#FFFFFF;}
	.st12{fill:#A64A67;}
	.st13{fill:#D398AE;}
	.st14{fill:#FFE2B0;}
	.st15{fill:#FFD983;}
	.st16{fill:#FFDE9C;}
	.st17{fill:#C48CA3;}
	.st18{fill:#A1788C;}
	.st19{fill:#FACEDE;}
	.st20{fill:#B28097;}
	.st21{fill:#12426D;}
	.st22{fill:#12436D;}
	.st23{fill:#FBD8AE;}
	.st24{fill:#588BA8;}
	.st25{fill:#139BD1;}
	.st26{fill:#42718A;}
	.st27{fill:#56A171;}
	.st28{fill:#6ABC88;}
	.st29{fill:#4C7E5B;}
	.st30{fill:#1FB2DF;}
	.st31{fill:#0D8CB2;}
	.st32{fill:#FBBA99;}
	.st33{fill:#636158;}
	.st34{fill:#56504D;}
	.st35{fill:#7F7E79;}
</style>
<g id="Ball_11">
	<g id="XMLID_199_">
		<polygon id="XMLID_3_" class="st0" points="120.5,335.8 115.1,340.9 115.7,352.8 123.6,357.7 132.7,356.2 134.9,351.1 
			136.2,345.1 131.1,338.3 		"/>
	</g>
	<g id="XMLID_188_">
		<path id="XMLID_4_" class="st1" d="M115.1,340.9c0,0,16.6,0.9,17.5,15.2c0,0,7.7-16.3-5.7-18.8C127,337.3,119.5,335.2,115.1,340.9
			z"/>
	</g>
	<g id="XMLID_50_">
		<path id="XMLID_215_" class="st2" d="M124.4,360c-7.2,0-13-5.8-13-13s5.8-13,13-13s13,5.8,13,13S131.6,360,124.4,360z M124.4,339
			c-4.4,0-8,3.6-8,8s3.6,8,8,8s8-3.6,8-8S128.8,339,124.4,339z"/>
	</g>
	<g id="XMLID_22_">
		<path id="XMLID_214_" class="st2" d="M132,355.8c-0.8,0-1.5-0.6-1.6-1.4c-0.4-3.7-1.8-6.5-4.2-8.3c-4.4-3.4-10.9-2.4-10.9-2.4
			c-0.9,0.1-1.7-0.5-1.8-1.3s0.4-1.7,1.3-1.8c0.3,0,7.8-1.2,13.3,3c3.1,2.4,4.9,5.9,5.4,10.5c0.1,0.9-0.5,1.6-1.4,1.7
			C132.1,355.8,132.1,355.8,132,355.8z"/>
	</g>
</g>
<g id="Ball_10">
	<g id="XMLID_198_">
		<polygon id="XMLID_5_" class="st1" points="119,390.9 113.7,396.1 114.2,408 122.2,412.8 131.3,411.3 133.5,406.3 134.8,400.3 
			129.7,393.5 		"/>
	</g>
	<g id="XMLID_187_">
		<path id="XMLID_6_" class="st3" d="M119.4,393.9c0,0,6.1,16.1,11.9,17.4C131.3,411.3,102.7,412.5,119.4,393.9z"/>
	</g>
	<g id="XMLID_49_">
		<path id="XMLID_224_" class="st2" d="M124.4,414.9c-7.2,0-13-5.8-13-13c0-7.2,5.8-13,13-13s13,5.8,13,13
			C137.4,409.1,131.6,414.9,124.4,414.9z M124.4,393.9c-4.4,0-8,3.6-8,8s3.6,8,8,8s8-3.6,8-8S128.8,393.9,124.4,393.9z"/>
	</g>
	<g id="XMLID_21_">
		<path id="XMLID_223_" class="st2" d="M131.1,411.6c-0.1,0-0.3,0-0.4-0.1c-12.5-3.3-12.9-18.7-12.9-18.8c0-0.9,0.7-1.6,1.6-1.6
			c0.8,0,1.6,0.7,1.6,1.5l0,0c0,0.5,0.4,13.1,10.6,15.8c0.8,0.2,1.3,1.1,1.1,1.9C132.4,411.1,131.8,411.6,131.1,411.6z"/>
	</g>
</g>
<g id="Ball_9">
	<g id="XMLID_197_">
		<polygon id="XMLID_7_" class="st3" points="85,423.1 79.6,428.2 80.2,440.1 88.1,445 97.2,443.5 99.4,438.4 100.7,432.4 
			95.6,425.6 		"/>
	</g>
	<g id="XMLID_186_">
		<path id="XMLID_8_" class="st0" d="M79.8,431.7c0,0,13.8-6.9,19.6,6.7C99.4,438.4,85.8,452.5,79.8,431.7z"/>
	</g>
	<g id="XMLID_48_">
		<path id="XMLID_229_" class="st2" d="M90.2,446.3c-7.2,0-13-5.8-13-13s5.8-13,13-13s13,5.8,13,13S97.3,446.3,90.2,446.3z
			 M90.2,425.3c-4.4,0-8,3.6-8,8s3.6,8,8,8s8-3.6,8-8S94.6,425.3,90.2,425.3z"/>
	</g>
	<g id="XMLID_20_">
		<path id="XMLID_228_" class="st2" d="M99.2,440.3c-0.6,0-1.3-0.4-1.5-1.1c-1.6-4.6-3.9-7.3-6.8-8.1c-4.9-1.3-10.2,3.3-10.2,3.4
			c-0.7,0.6-1.6,0.5-2.2-0.1c-0.6-0.7-0.5-1.6,0.1-2.2c0.3-0.2,6.6-5.7,13.1-4c3.9,1,7,4.4,9,10.1c0.3,0.8-0.1,1.7-1,2
			C99.5,440.2,99.3,440.3,99.2,440.3z"/>
	</g>
</g>
<g id="Ball_8">
	<g id="XMLID_196_">
		<polygon id="XMLID_9_" class="st1" points="63.5,463 58.2,468.2 58.8,480.1 66.7,484.9 75.8,483.4 78,478.4 79.3,472.4 
			74.2,465.6 		"/>
	</g>
	<g id="XMLID_185_">
		<path id="XMLID_10_" class="st0" d="M68.2,464.2c0,0-9.8,11.6,1.2,20.3C69.4,484.5,93,473.1,68.2,464.2z"/>
	</g>
	<g id="XMLID_46_">
		<path id="XMLID_233_" class="st2" d="M68.8,487c-7.2,0-13-5.8-13-13s5.8-13,13-13c7.2,0,13,5.8,13,13S75.9,487,68.8,487z
			 M68.8,466c-4.4,0-8,3.6-8,8s3.6,8,8,8c4.4,0,8-3.6,8-8S73.2,466,68.8,466z"/>
	</g>
	<g id="XMLID_19_">
		<path id="XMLID_232_" class="st2" d="M68.8,486.1c-0.5,0-0.9-0.2-1.3-0.6c-9.5-12.4,0-22.9,0.1-23c0.6-0.6,1.6-0.7,2.2-0.1
			c0.6,0.6,0.7,1.6,0.1,2.2c-0.3,0.4-7.8,8.7,0.1,19c0.5,0.7,0.4,1.7-0.3,2.2C69.4,486,69.1,486.1,68.8,486.1z"/>
	</g>
</g>
<g id="Ball_7">
	<g id="XMLID_195_">
		<polygon id="XMLID_11_" class="st3" points="82.5,508.7 77.2,513.8 77.7,525.7 85.6,530.6 94.7,529.1 96.9,524 98.2,518 
			93.1,511.2 		"/>
	</g>
	<g id="XMLID_184_">
		<path id="XMLID_12_" class="st1" d="M77.4,518.2c0,0,13.3-6,15.2,9.9C92.6,528.1,83.7,533.8,77.4,518.2z"/>
	</g>
	<g id="XMLID_47_">
		<path id="XMLID_240_" class="st2" d="M87.7,531.8c-7.2,0-13-5.8-13-13s5.8-13,13-13c7.2,0,13,5.8,13,13S94.9,531.8,87.7,531.8z
			 M87.7,510.8c-4.4,0-8,3.6-8,8s3.6,8,8,8c4.4,0,8-3.6,8-8S92.1,510.8,87.7,510.8z"/>
	</g>
	<g id="XMLID_18_">
		<path id="XMLID_238_" class="st2" d="M92.6,529.7c-0.9,0-1.6-0.7-1.6-1.6c0-4.1-1.1-6.9-3.2-8.2c-3.2-2-8.3-0.4-10,0.4
			c-0.8,0.4-1.7,0-2.1-0.8c-0.4-0.8,0-1.7,0.8-2.1c0.3-0.1,7.8-3.5,13-0.2c3,1.9,4.6,5.6,4.7,10.9C94.2,529,93.5,529.7,92.6,529.7
			C92.6,529.7,92.6,529.7,92.6,529.7z"/>
	</g>
</g>
<g id="Ball_6">
	<g id="XMLID_194_">
		<polygon id="XMLID_13_" class="st0" points="118.4,542.6 113.1,547.8 113.6,559.7 121.5,564.5 130.6,563 132.8,558 134.1,552 
			129,545.2 		"/>
	</g>
	<g id="XMLID_183_">
		<path id="XMLID_14_" class="st3" d="M111.7,551.1c0,0,12.2-7.6,20.4,1.5C132,552.6,123.3,580.3,111.7,551.1z"/>
	</g>
	<g id="XMLID_45_">
		<path id="XMLID_248_" class="st2" d="M122.2,566c-7.2,0-13-5.8-13-13s5.8-13,13-13s13,5.8,13,13S129.3,566,122.2,566z M122.2,545
			c-4.4,0-8,3.6-8,8s3.6,8,8,8s8-3.6,8-8S126.6,545,122.2,545z"/>
	</g>
	<g id="XMLID_17_">
		<path id="XMLID_247_" class="st2" d="M132.7,554.6c-0.3,0-0.6-0.1-0.9-0.3c-10.8-7.8-18.7-0.5-19-0.1c-0.6,0.6-1.6,0.6-2.2,0
			c-0.6-0.6-0.6-1.6,0-2.2c0.1-0.1,10.1-9.4,23-0.1c0.7,0.5,0.9,1.5,0.4,2.2C133.6,554.4,133.2,554.6,132.7,554.6z"/>
	</g>
</g>
<g id="Ball_5_1_">
	<g id="XMLID_260_">
		<polygon id="XMLID_265_" class="st0" points="161.5,542.6 156.2,547.8 156.7,559.7 164.6,564.5 173.7,563 175.9,558 177.2,552 
			172.1,545.2 		"/>
	</g>
	<g id="XMLID_253_">
		<path id="XMLID_254_" class="st3" d="M154.8,551.1c0,0,12.2-7.6,20.4,1.5C175.2,552.6,166.4,580.3,154.8,551.1z"/>
	</g>
	<g id="XMLID_235_">
		<path id="XMLID_242_" class="st2" d="M165.3,566c-7.2,0-13-5.8-13-13s5.8-13,13-13s13,5.8,13,13S172.5,566,165.3,566z M165.3,545
			c-4.4,0-8,3.6-8,8s3.6,8,8,8s8-3.6,8-8S169.7,545,165.3,545z"/>
	</g>
	<g id="XMLID_189_">
		<path id="XMLID_206_" class="st2" d="M175.8,554.6c-0.3,0-0.6-0.1-0.9-0.3c-10.8-7.8-18.7-0.5-19-0.1c-0.6,0.6-1.6,0.6-2.2,0
			c-0.6-0.6-0.6-1.6,0-2.2c0.1-0.1,10.1-9.4,23-0.1c0.7,0.5,0.9,1.5,0.4,2.2C176.8,554.4,176.3,554.6,175.8,554.6z"/>
	</g>
</g>
<g id="Ball_4">
	<g id="XMLID_193_">
		<polygon id="XMLID_15_" class="st3" points="461,543.7 455.7,548.9 456.2,560.8 464.1,565.6 473.2,564.1 475.4,559.1 476.7,553 
			471.6,546.3 		"/>
	</g>
	<g id="XMLID_182_">
		<path id="XMLID_16_" class="st1" d="M455.7,555.1c0,0,11.7-5.9,19.8,4C475.4,559.1,462.1,578,455.7,555.1z"/>
	</g>
	<g id="XMLID_44_">
		<path id="XMLID_262_" class="st2" d="M466.2,568.1c-7.2,0-13-5.8-13-13s5.8-13,13-13s13,5.8,13,13S473.3,568.1,466.2,568.1z
			 M466.2,547.1c-4.4,0-8,3.6-8,8s3.6,8,8,8s8-3.6,8-8S470.6,547.1,466.2,547.1z"/>
	</g>
	<g id="XMLID_2_">
		<path id="XMLID_261_" class="st2" d="M475,560.5c-0.5,0-1-0.2-1.3-0.7c-6.8-9.7-16.8-3.6-17.2-3.4c-0.7,0.5-1.7,0.2-2.2-0.5
			c-0.5-0.7-0.2-1.7,0.5-2.2c0.1-0.1,13-7.9,21.5,4.2c0.5,0.7,0.3,1.7-0.4,2.2C475.7,560.4,475.3,560.5,475,560.5z"/>
	</g>
</g>
<g id="Ball_3">
	<g id="XMLID_192_">
		<polygon id="XMLID_24_" class="st0" points="461,586.7 455.7,591.9 456.2,603.8 464.1,608.6 473.2,607.1 475.4,602.1 476.7,596 
			471.6,589.3 		"/>
	</g>
	<g id="XMLID_181_">
		<path id="XMLID_25_" class="st1" d="M465.8,587.7c0,0-6.6,12.4,7.9,17.2C473.8,604.9,480.4,593.6,465.8,587.7z"/>
	</g>
	<g id="XMLID_43_">
		<path id="XMLID_268_" class="st2" d="M466.2,610.6c-7.2,0-13-5.8-13-13s5.8-13,13-13s13,5.8,13,13S473.3,610.6,466.2,610.6z
			 M466.2,589.6c-4.4,0-8,3.6-8,8s3.6,8,8,8s8-3.6,8-8S470.6,589.6,466.2,589.6z"/>
	</g>
	<g id="XMLID_23_">
		<path id="XMLID_267_" class="st2" d="M474.1,606.1c-0.1,0-0.3,0-0.4,0c-5.8-1.4-9.5-4-10.9-7.8c-2.2-5.8,1.9-11.8,2-12.1
			c0.5-0.7,1.5-0.9,2.2-0.4c0.7,0.5,0.9,1.5,0.4,2.2c0,0.1-3.3,5-1.7,9.2c1,2.7,4,4.7,8.7,5.8c0.8,0.2,1.4,1.1,1.2,1.9
			C475.4,605.6,474.8,606.1,474.1,606.1z"/>
	</g>
</g>
<g id="Ball_2">
	<g id="XMLID_191_">
		<polygon id="XMLID_27_" class="st1" points="473.6,623.6 468.2,628.8 468.8,640.7 476.7,645.5 485.8,644 488,639 489.3,633 
			484.2,626.2 		"/>
	</g>
	<g id="XMLID_180_">
		<path id="XMLID_28_" class="st3" d="M469.8,634.6c0,0,9-2.7,13.8,8.6c0,0,15.2-4.7-1.8-17.5C481.8,625.6,469.6,623.8,469.8,634.6z
			"/>
	</g>
	<g id="XMLID_42_">
		<path id="XMLID_274_" class="st2" d="M478.8,649c-7.2,0-13-5.8-13-13s5.8-13,13-13s13,5.8,13,13S485.9,649,478.8,649z M478.8,628
			c-4.4,0-8,3.6-8,8s3.6,8,8,8s8-3.6,8-8S483.2,628,478.8,628z"/>
	</g>
	<g id="XMLID_26_">
		<path id="XMLID_273_" class="st2" d="M483.6,642.9c-0.6,0-1.1-0.3-1.4-0.8c-1.7-3.1-3.9-5-6.4-5.7c-3.6-1-6.8,0.9-6.8,0.9
			c-0.7,0.4-1.7,0.2-2.2-0.5c-0.4-0.7-0.2-1.7,0.5-2.2c0.2-0.1,4.4-2.6,9.3-1.3c3.4,0.9,6.1,3.3,8.3,7.2c0.4,0.8,0.1,1.7-0.6,2.1
			C484.1,642.8,483.9,642.9,483.6,642.9z"/>
	</g>
</g>
<g id="Ball_1">
	<g id="XMLID_190_">
		<polygon id="XMLID_30_" class="st0" points="510.6,647.2 505.3,652.4 505.8,664.3 513.7,669.1 522.8,667.6 525,662.6 526.3,656.6 
			521.2,649.8 		"/>
	</g>
	<g id="XMLID_179_">
		<path id="XMLID_31_" class="st1" d="M508.5,649.3c0,0,5.4,15.4,17.8,7.3C526.3,656.6,521.5,643.5,508.5,649.3z"/>
	</g>
	<g id="XMLID_41_">
		<path id="XMLID_281_" class="st2" d="M515.8,670.4c-7.2,0-13-5.8-13-13s5.8-13,13-13s13,5.8,13,13S523,670.4,515.8,670.4z
			 M515.8,649.4c-4.4,0-8,3.6-8,8s3.6,8,8,8s8-3.6,8-8S520.2,649.4,515.8,649.4z"/>
	</g>
	<g id="XMLID_29_">
		<path id="XMLID_279_" class="st2" d="M519.5,660.9c-1.6,0-3.1-0.3-4.4-1c-5.7-2.7-7.4-10-7.5-10.3c-0.2-0.9,0.4-1.7,1.2-1.9
			c0.9-0.2,1.7,0.4,1.9,1.2c0,0.1,1.4,6.1,5.7,8.1c2.5,1.2,5.6,0.8,9.2-1.1c0.8-0.4,1.7-0.1,2.1,0.7s0.1,1.7-0.7,2.1
			C524.3,660.2,521.8,660.9,519.5,660.9z"/>
	</g>
</g>
<g id="Star_4">
	<g id="XMLID_246_">
		<g id="XMLID_35_">
			<path id="XMLID_222_" class="st2" d="M85.5,389.3c-0.9,0-1.6-0.7-1.6-1.6v-30.1c0-0.9,0.7-1.6,1.6-1.6s1.6,0.7,1.6,1.6v30.1
				C87.1,388.6,86.4,389.3,85.5,389.3z"/>
		</g>
		<g id="XMLID_34_">
			<path id="XMLID_221_" class="st2" d="M100.5,374.3H70.4c-0.9,0-1.6-0.7-1.6-1.6s0.7-1.6,1.6-1.6h30.1c0.9,0,1.6,0.7,1.6,1.6
				S101.4,374.3,100.5,374.3z"/>
		</g>
	</g>
	<g id="XMLID_243_">
		<g id="XMLID_33_">
			<path id="XMLID_220_" class="st2" d="M74.8,384.9c-0.4,0-0.8-0.2-1.1-0.5c-0.6-0.6-0.6-1.6,0-2.2L95,360.9c0.6-0.6,1.6-0.6,2.2,0
				c0.6,0.6,0.6,1.6,0,2.2L76,384.5C75.7,384.8,75.2,384.9,74.8,384.9z"/>
		</g>
		<g id="XMLID_36_">
			<path id="XMLID_219_" class="st2" d="M96.1,384.9c-0.4,0-0.8-0.2-1.1-0.5l-21.3-21.3c-0.6-0.6-0.6-1.6,0-2.2
				c0.6-0.6,1.6-0.6,2.2,0l21.3,21.3c0.6,0.6,0.6,1.6,0,2.2C96.9,384.8,96.5,384.9,96.1,384.9z"/>
		</g>
	</g>
</g>
<g id="Star_3">
	<g id="XMLID_239_">
		<g id="XMLID_37_">
			<path id="XMLID_347_" class="st2" d="M483.6,401.3c-0.2,0-0.4,0-0.6-0.1c-0.8-0.3-1.2-1.3-0.8-2.1l8.2-19.7
				c0.3-0.8,1.3-1.2,2.1-0.8c0.8,0.3,1.2,1.3,0.8,2.1l-8.2,19.7C484.8,400.9,484.2,401.3,483.6,401.3z"/>
		</g>
		<g id="XMLID_38_">
			<path id="XMLID_346_" class="st2" d="M497.5,395.5c-0.2,0-0.4,0-0.6-0.1l-19.7-8.2c-0.8-0.3-1.2-1.3-0.8-2.1s1.3-1.2,2.1-0.8
				l19.7,8.2c0.8,0.3,1.2,1.3,0.8,2.1C498.7,395.2,498.1,395.5,497.5,395.5z"/>
		</g>
	</g>
	<g id="XMLID_236_">
		<g id="XMLID_39_">
			<path id="XMLID_345_" class="st2" d="M477.8,395.5c-0.6,0-1.2-0.4-1.5-1c-0.3-0.8,0.1-1.7,0.9-2.1l19.7-8.1
				c0.8-0.3,1.7,0.1,2.1,0.9c0.3,0.8-0.1,1.7-0.9,2.1l-19.7,8.1C478.2,395.4,478,395.5,477.8,395.5z"/>
		</g>
		<g id="XMLID_40_">
			<path id="XMLID_344_" class="st2" d="M491.7,401.3c-0.6,0-1.2-0.4-1.5-1l-8.1-19.7c-0.3-0.8,0.1-1.7,0.9-2.1
				c0.8-0.3,1.7,0.1,2.1,0.9l8.1,19.7c0.3,0.8-0.1,1.7-0.9,2.1C492.1,401.2,491.9,401.3,491.7,401.3z"/>
		</g>
	</g>
</g>
<g id="Star_2">
	<g id="XMLID_178_">
		<polygon class="st0" points="480,247.2 489,271.1 475,291.9 497.9,288.1 519.2,305.4 517.7,281.3 538.6,267.1 516.5,264 
			516.1,240.5 501,258.5 		"/>
	</g>
	<g id="XMLID_177_">
		<path class="st1" d="M489,271.1c1.4-0.2,18,4.8,18,4.8l11.7,27.7l-18.2-15.1c0,0-29,4.5-27.2,4S489,271.1,489,271.1z"/>
	</g>
	<g id="XMLID_176_">
		<polygon class="st3" points="517.3,262.6 507,275.9 518.6,303.6 517.7,281.3 540.2,267 		"/>
	</g>
	<g id="XMLID_32_">
		<path id="XMLID_341_" class="st2" d="M521.8,311.2l-22.1-20.9l-30,5l16.4-24.6l-10.7-26.9l23.9,12.6l19.2-22.8l0.5,28.7l26.7,2.8
			l-23.8,16.4L521.8,311.2z M501.3,285l15.4,14.6l0-20.6l14.8-10.1L514,267l-0.3-19.7l-13.1,15.6l-15.4-8.1l6.6,16.6l-11.4,17.1
			L501.3,285z"/>
	</g>
	<g id="XMLID_51_">
		<path id="XMLID_340_" class="st2" d="M519.2,307c-0.6,0-1.2-0.4-1.5-1L505,275.7l10.3-12.1c0.6-0.7,1.6-0.7,2.2-0.2
			c0.7,0.6,0.7,1.6,0.2,2.2l-9.1,10.6l12.1,28.4c0.3,0.8,0,1.7-0.8,2.1C519.7,306.9,519.4,307,519.2,307z"/>
	</g>
	<g id="XMLID_52_">
		<path id="XMLID_339_" class="st2" d="M506.8,277.6c-0.1,0-0.3,0-0.4-0.1l-17.8-4.9c-0.8-0.2-1.3-1.1-1.1-1.9
			c0.2-0.8,1.1-1.3,1.9-1.1l17.8,4.9c0.8,0.2,1.3,1.1,1.1,1.9C508.1,277.2,507.5,277.6,506.8,277.6z"/>
	</g>
</g>
<g id="Star_1">
	<g id="XMLID_175_">
		<polygon id="XMLID_54_" class="st0" points="110.1,583.7 110.2,601 93.7,607.7 109.4,615.5 111.7,638.6 125.2,622 146.1,622.3 
			133,605.4 138,588.4 123.6,598.2 		"/>
	</g>
	<g id="XMLID_174_">
		<polygon id="XMLID_55_" class="st3" points="110.1,583.7 111.7,602.8 133,605.4 138,588.4 123.6,598.2 		"/>
	</g>
	<g id="XMLID_173_">
		<polygon id="XMLID_56_" class="st1" points="109.5,616.9 111.7,638.6 123.6,621.1 		"/>
	</g>
	<g id="XMLID_53_">
		<path id="XMLID_257_" class="st2" d="M109.8,643.2l-2.8-24.7L85.4,607l22.3-4.9l-0.1-25.1l15.9,18.2l18.7-12.7l-6.5,23.7l16,19
			l-25.5-1.4L109.8,643.2z M99.8,608.9l11.9,6.4l1.8,15.8l10.6-12.5l16.4,0.9l-10.2-12.1l3.6-13l-11.1,7.6l-10-11.4l0,15.7
			L99.8,608.9z"/>
	</g>
	<g id="XMLID_57_">
		<path id="XMLID_256_" class="st2" d="M133,608.3c-0.1,0-0.1,0-0.2,0l-22.8-2.7c-0.9-0.1-1.5-0.9-1.4-1.7c0.1-0.9,0.9-1.5,1.7-1.4
			l22.8,2.7c0.9,0.1,1.5,0.9,1.4,1.7C134.5,607.7,133.8,608.3,133,608.3z"/>
	</g>
	<g id="XMLID_58_">
		<path id="XMLID_255_" class="st2" d="M125.2,622.7c-0.1,0-0.3,0-0.4-0.1l-15.8-4.2c-0.8-0.2-1.3-1.1-1.1-1.9
			c0.2-0.8,1.1-1.3,1.9-1.1l15.8,4.2c0.8,0.2,1.3,1.1,1.1,1.9C126.5,622.2,125.9,622.7,125.2,622.7z"/>
	</g>
</g>
<g id="Crocodile">
	<g id="XMLID_205_">
		<path id="XMLID_60_" class="st0" d="M104.8,202v70.6c0,0-25.7,17.5,0,46.7l19.4-19.9l21.1,21.2c0,0,23.2-17.5,4.1-42.9
			c0,0,7.4-7.3-3.5-14.5c0,0,9.9-22.8-15.6-31.9C130.5,231.3,131.5,207.3,104.8,202z"/>
	</g>
	<g id="XMLID_204_">
		<path id="XMLID_61_" class="st1" d="M104.8,202c0,0,15.9,15.5,14.5,40.9c0,0,23.2,5.7,26.7,20.2c0,0,8.8-23.4-15.6-31.9
			C130.5,231.3,132.6,208.3,104.8,202z"/>
	</g>
	<g id="XMLID_202_">
		<polygon id="XMLID_62_" class="st1" points="104.8,316.6 101.7,305.9 113.9,310.1 111.8,294.3 124.3,299.5 		"/>
	</g>
	<g id="XMLID_201_">
		<polygon class="st1" points="144.3,316.6 147.5,305.9 135.3,310.1 137.3,294.3 124.9,299.5 		"/>
	</g>
	<g id="XMLID_200_">
		<path id="XMLID_63_" class="st3" d="M155.8,305.4c0,0-5.6-22.7-18.5-29.9c0,0,10.8-3.2,8.7-12.4l5.1,5.2l0.5,5.5l-2.2,3.8l5.1,8.6
			l2.4,11.8L155.8,305.4z"/>
	</g>
	<g id="XMLID_59_">
		<path id="XMLID_209_" class="st2" d="M145.2,324l-20.9-21l-19.4,19.9l-1.8-1.6c-8.9-8.2-13.2-17-13-26.1
			c0.4-12.5,9.2-21.6,12.2-24.3v-71.9l3,0.7c26.3,6,28,23.6,27.8,29.9c7.3,2.6,12.4,6.8,15.1,12.5c3.8,8,1.9,16.6,0.7,20.3
			c2.9,2.5,4.5,5.3,4.9,8.4c0.4,3-0.6,5.5-1.4,7c16,26.6-5.3,44.7-5.5,44.8L145.2,324z M124.2,295.9l21.2,21.2
			c4.3-4.6,14.6-18.6,2-38.1l-1-1.5l1.2-1.4c0,0,1.7-2.1,1.3-4.8c-0.3-2.1-1.7-4.2-4.4-6.1L143,264l0.8-1.8c0-0.1,3.9-9.8,0-18
			c-2.3-4.9-7-8.4-14-10.5l-2.2-0.6l0.4-2.2c0.1-0.8,3.1-18.7-20.7-25.5v67.9l-0.9,0.7c-0.1,0.1-10.9,9-11.2,21.4
			c-0.2,7.1,3,14,9.6,20.6L124.2,295.9z"/>
	</g>
	<g id="XMLID_64_">
		<circle class="st2" cx="137.3" cy="286.4" r="4.6"/>
	</g>
	<g id="XMLID_65_">
		<path id="XMLID_207_" class="st2" d="M146,264.7c-0.7,0-1.4-0.5-1.5-1.2c-3.2-13.4-25.2-18.1-25.5-18.1l-1.5-0.3l0.3-1.5
			c3.5-16.9-14.1-40.3-14.3-40.5c-0.5-0.7-0.4-1.7,0.3-2.2c0.7-0.5,1.7-0.4,2.2,0.3c0.7,1,17.7,23.5,15.1,41.6
			c5.4,1.4,23.2,6.9,26.4,20.2c0.2,0.8-0.3,1.7-1.2,1.9C146.3,264.7,146.2,264.7,146,264.7z"/>
	</g>
	<g id="XMLID_203_">
		<path id="XMLID_67_" class="st3" d="M121.2,261.3l3.1,10.6l-1.6,10.7l-8.2,3.7l-11.1-2l-7.2-4.6l-3.6-9.4c0,0-1.5-10.7,19.3-6.9
			C111.8,263.5,113.4,257.5,121.2,261.3z"/>
	</g>
	<g id="XMLID_66_">
		<path id="XMLID_208_" class="st2" d="M112.6,288.9c-9.4,0-17-5.5-20.3-11.1c-2.6-4.3-2.9-8.7-0.9-12c1.6-2.6,5.2-5.6,13.6-5.1
			c1.4,0.1,2.4,1.2,2.4,2.6c-0.1,1.4-1.2,2.4-2.6,2.4c-4.6-0.3-7.9,0.7-9.1,2.7c-1,1.7-0.7,4.2,0.9,6.9c2.8,4.6,9.1,9.1,17.1,8.7
			c3.9-0.2,6.4-1.4,7.7-3.6c2.9-5-0.8-14.6-2.4-17.8c-0.6-1.2-0.1-2.7,1.1-3.4s2.7-0.1,3.4,1.1c0.3,0.6,7.1,14.2,2.3,22.6
			c-2.2,3.7-6.1,5.8-11.8,6.1C113.4,288.9,113,288.9,112.6,288.9z"/>
	</g>
</g>
<g id="Arcade_Machine">
	<g id="XMLID_172_">
		<rect x="167.8" y="216" class="st4" width="276.9" height="200.5"/>
	</g>
	<g id="XMLID_171_">
		<path class="st5" d="M167.8,378.5c0,0,178.7-14.1,169.2-162.5H446v200.5H167.8V378.5z"/>
	</g>
	<g id="XMLID_170_">
		<polygon class="st6" points="127,152.6 167.8,216 444.7,216 487.6,150 		"/>
	</g>
	<g id="XMLID_169_">
		<polygon class="st7" points="444.6,530.2 167.8,530.2 167.8,565.6 167.8,595.8 168.1,616.9 161.1,643.1 155.2,660.4 150.1,666.4 
			132.7,679.6 478.8,679.6 468.9,673.2 457.2,658.2 450.5,641.5 446.7,622 444.6,602.4 		"/>
	</g>
	<g id="XMLID_168_">
		<polygon class="st8" points="167.8,416.6 116,481.5 496.4,481.5 444.7,416.6 		"/>
	</g>
	<g id="XMLID_167_">
		<rect x="125.3" y="122.6" class="st8" width="362.3" height="27.4"/>
	</g>
	<g id="XMLID_166_">
		<path class="st7" d="M496.4,481.5H116l-2.1,9.7l7.7,8.9l13,3.2l3.7,8.5l7.7,10.9l11.3,6.6l10.5,0.9h272.8h9.9l13.3-6.2l8.6-9.3
			l7.6-11.4C480,503.3,500.4,507.8,496.4,481.5z"/>
	</g>
	<g id="XMLID_165_">
		<polygon class="st9" points="365,240.5 250.8,240.5 242.5,241.9 234.2,251.2 229.5,261.3 229.5,320.6 234.2,327.9 243,336.5 
			254.4,338.3 359.1,338.3 371.6,336.5 379.6,326.6 383.7,317.6 383.7,289.4 383.7,261.3 377.9,248.9 		"/>
	</g>
	<g id="XMLID_164_">
		<polygon class="st10" points="188.9,216 165.4,169.6 449.2,169.6 424.4,216 444.7,216 487.6,150 127,150 167.8,216 		"/>
	</g>
	<g id="XMLID_163_">
		<path class="st7" d="M167.8,216h21.1v59c0,0-3.6,25.5-20.8,24L167.8,216z"/>
	</g>
	<g id="XMLID_162_">
		<path class="st7" d="M446,216h-21.1v59c0,0,3.6,25.5,20.8,24L446,216z"/>
	</g>
	<g id="XMLID_161_">
		<path class="st11" d="M279.5,240.6c0,0,9.5,98.3,79.6,98.3l-104.7-0.6l-15.4-5.7l-9.5-12v-59.4l4.7-10l8.3-9.3L279.5,240.6z"/>
	</g>
	<g id="XMLID_160_">
		<path class="st12" d="M291.6,216c0,0-26.3-48.5,48.9-48.5H165.4l23.5,48.5H291.6z"/>
	</g>
	<g id="XMLID_159_">
		<path class="st13" d="M167.8,216h21.1l-23.5-46.4H330c0,0,94,8.6,97.1-19.2H127L167.8,216z"/>
	</g>
	<g id="XMLID_158_">
		<path class="st14" d="M238,122.6c0,0,63.6-4.6,63.6,27.8h186v-27.8H238z"/>
	</g>
	<g id="XMLID_157_">
		<path class="st15" d="M277,416.9c0,0-8.6,64.6,85.8,64.6H116l51.9-64.9L277,416.9z"/>
	</g>
	<g id="XMLID_156_">
		<path class="st16" d="M167.8,416.6c0,0-5.2,64.9,45.6,64.9H116L167.8,416.6z"/>
	</g>
	<g id="XMLID_155_">
		<path class="st17" d="M134.6,503.3c0,0,6.2,27,33.2,27h276.8c0,0,25,0,35.4-27H134.6z"/>
	</g>
	<g id="XMLID_154_">
		<path class="st13" d="M496.4,481.5H113.9c0,0-0.6,21.8,20.7,21.8H480C480,503.3,495.2,501.2,496.4,481.5z"/>
	</g>
	<g id="XMLID_153_">
		<path class="st18" d="M480,503.3c0,0-12.7,27-35.4,27l-37.4-0.9c0,0,14.4-4.8,17.7-26.8L480,503.3z"/>
	</g>
	<g id="XMLID_152_">
		<path class="st7" d="M155.2,503.3c0,0,6.4,21.8,17.8,27h-13.6l-13.3-7.5l-8.7-20.2L155.2,503.3z"/>
	</g>
	<g id="XMLID_151_">
		<path class="st7" d="M183.1,503.3c0,0-12.2-7.3-10.1-21.8h-59.1c0,0,0.2,21.8,20.7,21.8H183.1z"/>
	</g>
	<g id="XMLID_150_">
		<path class="st7" d="M455.7,502.9c0,0,16-4.9,13.2-21.4h27.5c0,0,7.9,22.1-16.5,21.8C455.7,502.9,455.7,502.9,455.7,502.9z"/>
	</g>
	<g id="XMLID_149_">
		<path class="st17" d="M168.1,558.9c0,0,173.4-3.4,278.6,63.1l-2-50.3l-0.2-41.5H167.8L168.1,558.9z"/>
	</g>
	<g id="XMLID_148_">
		<polygon class="st17" points="462,664.5 150.1,664.5 146,675.1 132.7,679.6 475.9,679.6 468.9,673.2 		"/>
	</g>
	<g id="XMLID_147_">
		<path class="st19" d="M168.1,587.1c0,0,44.5,77.4,239.1,77.4H150.1l5.9-7.9l7.7-18.7l4.4-21.1V587.1z"/>
	</g>
	<g id="XMLID_146_">
		<path class="st20" d="M217.3,664.5c0,0-5.4,15,43.6,15H132.7l13.4-4.5l4-8.7L217.3,664.5z"/>
	</g>
	<g id="XMLID_123_">
		<polygon class="st4" points="173,435.6 167.4,437.4 159.4,448.8 162.3,459.9 170.3,462 178.4,456.5 181.2,443.8 180.2,437.4 		"/>
	</g>
	<g id="XMLID_122_">
		<polygon class="st4" points="436.8,435.6 442.4,437.4 450.5,448.8 447.6,459.9 439.6,462 431.5,456.5 428.7,443.8 429.6,437.4 		
			"/>
	</g>
	<g id="XMLID_121_">
		<rect x="167.8" y="269.8" class="st11" width="19.4" height="5.7"/>
	</g>
	<g id="XMLID_120_">
		<rect x="167.8" y="255.6" class="st11" width="19.4" height="5.7"/>
	</g>
	<g id="XMLID_119_">
		<rect x="167.8" y="241.5" class="st11" width="19.4" height="5.7"/>
	</g>
	<g id="XMLID_118_">
		<rect x="167.8" y="227.4" class="st11" width="19.4" height="5.7"/>
	</g>
	<g id="XMLID_117_">
		<rect x="425.7" y="269.8" class="st11" width="19.4" height="5.7"/>
	</g>
	<g id="XMLID_116_">
		<rect x="425.7" y="255.6" class="st11" width="19.4" height="5.7"/>
	</g>
	<g id="XMLID_115_">
		<rect x="425.7" y="241.5" class="st11" width="19.4" height="5.7"/>
	</g>
	<g id="XMLID_114_">
		<rect x="425.7" y="227.4" class="st11" width="19.4" height="5.7"/>
	</g>
	<g id="XMLID_108_">
		<path class="st12" d="M159.4,446.6c0,0,3.2,18.3,21.8,0l-2.8,9.9l-6.4,4.4l-7.2,1.1l-3.8-3.8L159.4,446.6z"/>
	</g>
	<g id="XMLID_107_">
		<path class="st12" d="M450.4,446.6c0,0-3.2,18.3-21.8,0l2.8,9.9l6.4,4.4l7.2,1.1l3.8-3.8L450.4,446.6z"/>
	</g>
	<g id="XMLID_97_">
		<path id="XMLID_422_" class="st21" d="M447.3,419.1h-282V213.5h282V419.1z M170.3,414.1h271.9V218.6H170.3V414.1z"/>
	</g>
	<g id="XMLID_94_">
		<path id="XMLID_421_" class="st21" d="M444.6,532.7H167.8c-27.5,0-35.5-28.5-35.6-28.8c-0.4-1.3,0.4-2.7,1.8-3.1
			c1.3-0.4,2.7,0.4,3.1,1.8l0,0c0.3,1,7.1,25.1,30.8,25.1h276.8c23.7,0,30.7-24.8,30.8-25.1c0.4-1.3,1.7-2.1,3.1-1.8
			c1.3,0.4,2.1,1.7,1.8,3.1C480.1,504.2,472.1,532.7,444.6,532.7z"/>
	</g>
	<g id="XMLID_93_">
		<path id="XMLID_420_" class="st21" d="M125.3,682.1c-1.4,0-2.5-1.1-2.5-2.5s1.1-2.5,2.5-2.5c7.4,0,13.9-2.8,19.3-8.2
			c20.6-20.6,20.7-72.5,20.7-73v-65.6c0-1.4,1.1-2.5,2.5-2.5s2.5,1.1,2.5,2.5v65.6c0,2.2-0.1,54.5-22.1,76.6
			C141.8,678.8,134.1,682.1,125.3,682.1z"/>
	</g>
	<g id="XMLID_92_">
		<path id="XMLID_419_" class="st21" d="M477.8,505.8H134.6c-8.6,0-14.8-2.4-18.4-7.3c-5.5-7.4-2.8-17.3-2.7-17.7l0.1-0.5l0.3-0.4
			l51.9-64.9c0.9-1.1,2.5-1.3,3.5-0.4c1.1,0.9,1.3,2.5,0.4,3.5l-51.5,64.5c-0.4,1.8-1.5,8.3,2,12.9c2.6,3.5,7.5,5.2,14.4,5.2h343.1
			c6.9,0,11.7-1.8,14.4-5.2c3.5-4.6,2.4-11.1,2-12.9l-51.5-64.5c-0.9-1.1-0.7-2.7,0.4-3.5c1.1-0.9,2.7-0.7,3.5,0.4l52.2,65.3
			l0.1,0.5c0.1,0.4,2.9,10.4-2.7,17.7C492.5,503.3,486.4,505.8,477.8,505.8z"/>
	</g>
	<g id="XMLID_91_">
		<path id="XMLID_418_" class="st21" d="M496.4,484H116c-1.4,0-2.5-1.1-2.5-2.5s1.1-2.5,2.5-2.5h380.5c1.4,0,2.5,1.1,2.5,2.5
			S497.8,484,496.4,484z"/>
	</g>
	<g id="XMLID_90_">
		<path id="XMLID_417_" class="st21" d="M487.1,682.1c-8.8,0-16.5-3.3-22.9-9.7c-22-22.1-22.1-74.4-22.1-76.6l0-65.6
			c0-1.4,1.1-2.5,2.5-2.5s2.5,1.1,2.5,2.5v65.6c0,0.5,0.1,52.4,20.7,73c5.5,5.5,12,8.2,19.3,8.2c1.4,0,2.5,1.1,2.5,2.5
			S488.5,682.1,487.1,682.1z"/>
	</g>
	<g id="XMLID_89_">
		<path id="XMLID_416_" class="st21" d="M445.1,218.6c-0.5,0-0.9-0.1-1.4-0.4c-1.2-0.8-1.5-2.3-0.8-3.5l42.1-65.4v-24.1H127.8v24.1
			l42.1,65.4c0.8,1.2,0.4,2.7-0.8,3.5c-1.2,0.8-2.7,0.4-3.5-0.8l-42.9-66.7v-30.6h367.4v30.6l-42.9,66.7
			C446.7,218.2,445.9,218.6,445.1,218.6z"/>
	</g>
	<g id="XMLID_88_">
		<path id="XMLID_415_" class="st21" d="M487.6,152.5H125.3c-1.4,0-2.5-1.1-2.5-2.5s1.1-2.5,2.5-2.5h362.3c1.4,0,2.5,1.1,2.5,2.5
			S489,152.5,487.6,152.5z"/>
	</g>
	<g id="XMLID_87_">
		<path id="XMLID_414_" class="st21" d="M445.1,301c-6.6,0-11.8-2.1-15.7-6.1c-7.2-7.6-6.7-19.5-6.7-20l0-59.3l23.8-44.7H166.3
			l23.8,44.7V275c0,0.4,0.6,12.3-6.7,19.9c-3.8,4-9.1,6.1-15.7,6.1c-0.9,0-1.6-0.7-1.6-1.6s0.7-1.6,1.6-1.6c5.6,0,10.1-1.7,13.4-5.1
			c6.3-6.6,5.8-17.6,5.8-17.7l0-58.6L161,167.8h290.8l-25.9,48.7V275c0,0.2-0.5,11.2,5.8,17.8c3.2,3.4,7.7,5.1,13.4,5.1
			c0.9,0,1.6,0.7,1.6,1.6S446,301,445.1,301z"/>
	</g>
	<g id="XMLID_86_">
		<path id="XMLID_413_" class="st21" d="M175.1,654.1c-0.4,0-0.8-0.1-1.2-0.3c-1.2-0.6-1.7-2.2-1.1-3.4c1.9-3.6,3.5-8.3,5-14.1
			c0.3-1.4,1.7-2.2,3.1-1.8c1.4,0.3,2.2,1.7,1.8,3.1c-1.5,6.1-3.3,11.3-5.4,15.2C176.9,653.6,176,654.1,175.1,654.1z"/>
	</g>
	<g id="XMLID_85_">
		<path id="XMLID_412_" class="st21" d="M183.1,624.5c-0.1,0-0.2,0-0.4,0c-1.4-0.2-2.3-1.5-2.1-2.9c4.9-33.3,3.1-76.7,3-77.1
			c-0.1-1.4,1-2.6,2.4-2.6c1.4-0.1,2.6,1,2.6,2.4c0,0.4,1.9,44.3-3.1,78.1C185.4,623.6,184.3,624.5,183.1,624.5z"/>
	</g>
	<g id="XMLID_84_">
		<path id="XMLID_411_" class="st21" d="M462,668h-312c-0.9,0-1.6-0.7-1.6-1.6s0.7-1.6,1.6-1.6h312c0.9,0,1.6,0.7,1.6,1.6
			S462.9,668,462,668z"/>
	</g>
	<g id="XMLID_83_">
		<circle class="st21" cx="435.4" cy="136.6" r="5.2"/>
	</g>
	<g id="XMLID_82_">
		<circle class="st21" cx="462.5" cy="136.6" r="5.2"/>
	</g>
	<g id="XMLID_81_">
		<path id="XMLID_410_" class="st21" d="M427.1,179.7h-55.5c-0.9,0-1.6-0.7-1.6-1.6s0.7-1.6,1.6-1.6h55.5c0.9,0,1.6,0.7,1.6,1.6
			S428,179.7,427.1,179.7z"/>
	</g>
	<g id="XMLID_68_">
		<path id="XMLID_407_" class="st21" d="M167.5,464.5c-1.6,0-3.1-0.4-4.6-1.1c-6.2-3.1-7.9-12.2-3.8-20.3c1.9-3.8,4.8-6.8,8.1-8.5
			c3.6-1.9,7.3-2,10.5-0.5c6.2,3.1,7.9,12.2,3.8,20.3l-2.3-1.1l2.3,1.1c-1.9,3.8-4.8,6.8-8.1,8.5C171.4,464,169.4,464.5,167.5,464.5
			z M173.1,438.1c-1.1,0-2.3,0.3-3.6,1c-2.4,1.2-4.5,3.5-5.9,6.3c-2.8,5.5-2,11.7,1.6,13.5c1.6,0.8,3.7,0.7,5.9-0.4
			c2.4-1.2,4.5-3.5,5.9-6.3c2.8-5.5,2-11.7-1.6-13.5C174.7,438.3,173.9,438.1,173.1,438.1z"/>
	</g>
	<g id="XMLID_69_">
		<path id="XMLID_401_" class="st21" d="M442.4,464.5c-5.3,0-10.9-3.8-14.1-10l0,0c-4.1-8.1-2.3-17.2,3.8-20.3
			c6.2-3.1,14.5,0.9,18.6,9c4.1,8.1,2.3,17.2-3.8,20.3C445.5,464.1,444,464.5,442.4,464.5z M432.9,452.2c2.8,5.5,8.2,8.6,11.8,6.8
			c3.6-1.8,4.4-8,1.6-13.5c-2.8-5.5-8.2-8.6-11.8-6.8C430.8,440.5,430.1,446.7,432.9,452.2L432.9,452.2z"/>
	</g>
	<g id="XMLID_70_">
		<path id="XMLID_398_" class="st21" d="M358,340.9H254.9c-15.6,0-28.2-12.7-28.2-28.2v-47.5c0-15.6,12.7-28.2,28.2-28.2H358
			c15.6,0,28.2,12.7,28.2,28.2v47.5C386.2,328.2,373.6,340.9,358,340.9z M254.9,242c-12.8,0-23.2,10.4-23.2,23.2v47.5
			c0,12.8,10.4,23.2,23.2,23.2H358c12.8,0,23.2-10.4,23.2-23.2v-47.5c0-12.8-10.4-23.2-23.2-23.2H254.9z"/>
	</g>
	<g id="XMLID_71_">
		<path id="XMLID_397_" class="st21" d="M306.5,329.1c-1.4,0-2.5-1.1-2.5-2.5v-18c0-1.4,1.1-2.5,2.5-2.5c1.4,0,2.5,1.1,2.5,2.5v18
			C309,328,307.8,329.1,306.5,329.1z"/>
	</g>
	<g id="XMLID_72_">
		<path id="XMLID_396_" class="st21" d="M293.4,311.1c-0.5,0-1-0.1-1.4-0.4c-1.2-0.8-1.5-2.4-0.7-3.5l13.8-20.4l16.3,20.2
			c0.9,1.1,0.7,2.7-0.4,3.5c-1.1,0.9-2.7,0.7-3.5-0.4l-12-14.9l-10,14.8C295,310.8,294.2,311.1,293.4,311.1z"/>
	</g>
	<g id="XMLID_73_">
		<g id="XMLID_266_">
			<g id="XMLID_306_">
				<path id="XMLID_76_" class="st21" d="M267.2,277.4c-1.1-0.4-2.2-1-3.2-1.8c-0.5-0.5-0.8-1-0.8-1.6c0-0.5,0.2-0.9,0.5-1.2
					c0.3-0.4,0.8-0.5,1.2-0.5c0.4,0,0.7,0.1,1,0.4c0.8,0.7,1.6,1.1,2.4,1.4c0.8,0.3,1.7,0.5,2.7,0.5c1.1,0,2.1-0.3,2.9-0.8
					c0.8-0.5,1.2-1.1,1.2-1.9c0-0.9-0.4-1.6-1.2-2.1c-0.8-0.5-2.1-0.9-3.8-1.2c-4.4-0.6-6.6-2.7-6.6-6.1c0-1.3,0.3-2.4,1-3.3
					s1.6-1.6,2.7-2.1c1.1-0.5,2.4-0.7,3.8-0.7c1.3,0,2.5,0.2,3.6,0.6c1.1,0.4,2,0.9,2.8,1.5c0.6,0.5,0.9,1,0.9,1.6
					c0,0.5-0.2,0.9-0.5,1.2c-0.3,0.4-0.7,0.5-1.2,0.5c-0.3,0-0.6-0.1-0.8-0.3c-0.5-0.4-1.3-0.8-2.2-1.2c-0.9-0.4-1.8-0.5-2.5-0.5
					c-1.3,0-2.2,0.2-2.9,0.7c-0.7,0.5-1,1.1-1,1.9c0,0.9,0.4,1.5,1.1,2c0.7,0.4,1.8,0.8,3.4,1.1c1.7,0.3,3.1,0.7,4.1,1.2
					c1,0.5,1.8,1.1,2.3,1.9c0.5,0.8,0.8,1.9,0.8,3.2c0,1.3-0.4,2.4-1.1,3.3c-0.7,1-1.7,1.7-2.8,2.2c-1.2,0.5-2.5,0.8-3.8,0.8
					C269.6,277.9,268.3,277.8,267.2,277.4z"/>
			</g>
			<g id="XMLID_382_">
				<path id="XMLID_77_" class="st22" d="M271,278.4c-1.5,0-2.8-0.2-4-0.6c-1.2-0.4-2.3-1-3.3-1.9c-0.7-0.6-1-1.2-1-2
					c0-0.6,0.2-1.1,0.7-1.6c0.8-0.8,2.1-0.9,2.9-0.2c0.8,0.6,1.5,1.1,2.2,1.4c0.7,0.3,1.6,0.4,2.5,0.4c1,0,1.9-0.2,2.6-0.7
					c0.7-0.4,1-0.9,1-1.4c0-0.7-0.3-1.3-1-1.7c-0.7-0.5-2-0.8-3.6-1.1c-4.7-0.7-7-2.9-7-6.6c0-1.4,0.4-2.6,1.1-3.6
					c0.7-1,1.7-1.8,2.9-2.3c1.2-0.5,2.6-0.8,4-0.8c1.3,0,2.6,0.2,3.7,0.6c1.2,0.4,2.2,0.9,2.9,1.6c0.7,0.6,1.1,1.2,1.1,2
					c0,0.6-0.2,1.1-0.7,1.6c-0.4,0.5-1,0.7-1.6,0.7c-0.4,0-0.8-0.1-1.1-0.4c-0.5-0.4-1.2-0.8-2.1-1.1c-0.9-0.3-1.7-0.5-2.3-0.5
					c-1.2,0-2.1,0.2-2.7,0.6c-0.6,0.4-0.8,0.8-0.8,1.4c0,0.7,0.3,1.2,0.8,1.5c0.7,0.4,1.7,0.8,3.2,1c1.8,0.3,3.2,0.7,4.3,1.2
					c1.1,0.5,2,1.2,2.5,2.1c0.6,0.9,0.9,2.1,0.9,3.5c0,1.4-0.4,2.6-1.2,3.6c-0.8,1-1.8,1.8-3,2.4C273.8,278.2,272.5,278.4,271,278.4
					z M264.9,272.7c-0.3,0-0.6,0.1-0.9,0.4c-0.2,0.3-0.4,0.5-0.4,0.9c0,0.4,0.2,0.8,0.6,1.2c0.9,0.8,1.9,1.4,3,1.7h0
					c1.1,0.3,2.3,0.5,3.7,0.5c1.3,0,2.5-0.2,3.6-0.7c1.1-0.5,2-1.2,2.6-2c0.6-0.9,1-1.9,1-3c0-1.2-0.2-2.2-0.7-3
					c-0.5-0.7-1.2-1.3-2.1-1.7c-1-0.5-2.3-0.8-4-1.1c-1.6-0.3-2.8-0.7-3.5-1.2c-0.9-0.5-1.3-1.4-1.3-2.4c0-0.9,0.4-1.7,1.3-2.3
					c0.8-0.5,1.9-0.8,3.2-0.8c0.8,0,1.7,0.2,2.7,0.6c1,0.4,1.8,0.8,2.3,1.2c0.1,0.1,0.3,0.2,0.5,0.2c0.3,0,0.6-0.1,0.8-0.4
					s0.4-0.5,0.4-0.9c0-0.4-0.2-0.8-0.7-1.2c-0.7-0.6-1.6-1.1-2.6-1.4c-1.1-0.4-2.2-0.5-3.4-0.5c-1.3,0-2.6,0.2-3.6,0.7
					c-1.1,0.5-1.9,1.1-2.5,2c-0.6,0.8-0.9,1.9-0.9,3c0,3.2,2,5,6.2,5.7c1.8,0.3,3.2,0.7,4,1.2c1,0.6,1.4,1.5,1.4,2.5
					c0,0.9-0.5,1.7-1.5,2.3c-0.9,0.5-2,0.8-3.2,0.8c-1.1,0-2.1-0.2-2.9-0.5c-0.8-0.3-1.6-0.8-2.5-1.5
					C265.4,272.8,265.2,272.7,264.9,272.7z"/>
			</g>
		</g>
		<g id="XMLID_287_">
			<g id="XMLID_312_">
				<path id="XMLID_78_" class="st21" d="M297.4,257c0.3,0.3,0.5,0.7,0.5,1.3c0,0.5-0.2,0.9-0.5,1.3c-0.3,0.3-0.8,0.5-1.3,0.5h-4.7
					v15.8c0,0.5-0.2,1-0.6,1.3c-0.4,0.4-0.9,0.5-1.4,0.5c-0.6,0-1-0.2-1.4-0.5c-0.4-0.4-0.5-0.8-0.5-1.3V260h-4.7
					c-0.5,0-1-0.2-1.3-0.5c-0.3-0.3-0.5-0.7-0.5-1.3c0-0.5,0.2-0.9,0.5-1.2c0.4-0.3,0.8-0.5,1.3-0.5h13.4
					C296.6,256.5,297.1,256.7,297.4,257z"/>
			</g>
			<g id="XMLID_377_">
				<path id="XMLID_79_" class="st22" d="M289.4,278.1c-0.7,0-1.3-0.2-1.7-0.7c-0.5-0.4-0.7-1-0.7-1.7v-15.3h-4.2
					c-0.7,0-1.2-0.2-1.7-0.6c-0.4-0.4-0.7-1-0.7-1.6c0-0.6,0.2-1.2,0.7-1.6c0.4-0.4,1-0.6,1.6-0.6h13.4c0.7,0,1.2,0.2,1.7,0.6l0,0
					c0.4,0.4,0.7,1,0.7,1.6c0,0.7-0.2,1.2-0.7,1.6c-0.4,0.4-1,0.6-1.7,0.6h-4.2v15.3c0,0.7-0.2,1.2-0.7,1.7
					C290.7,277.9,290.1,278.1,289.4,278.1z M282.7,257c-0.4,0-0.7,0.1-1,0.4c-0.2,0.2-0.4,0.5-0.4,0.9c0,0.4,0.1,0.7,0.4,0.9
					c0.2,0.2,0.6,0.3,1,0.3h5.2v16.3c0,0.4,0.1,0.7,0.4,1c0.5,0.5,1.5,0.5,2.1,0c0.3-0.3,0.4-0.6,0.4-0.9v-16.3h5.2
					c0.4,0,0.7-0.1,1-0.3c0.2-0.2,0.3-0.5,0.3-0.9c0-0.4-0.1-0.7-0.4-0.9c-0.2-0.2-0.6-0.3-1-0.3H282.7z"/>
			</g>
		</g>
		<g id="XMLID_311_">
			<g id="XMLID_338_">
				<path id="XMLID_80_" class="st21" d="M316.3,276c0,0.5-0.2,0.9-0.5,1.3c-0.3,0.3-0.7,0.5-1.2,0.5c-0.4,0-0.7-0.1-1-0.3
					c-0.3-0.2-0.5-0.5-0.7-0.9l-1.6-3.6h-9l-1.6,3.7c-0.1,0.4-0.4,0.7-0.6,0.9c-0.3,0.2-0.6,0.3-0.9,0.3c-0.5,0-0.9-0.1-1.2-0.4
					c-0.3-0.3-0.4-0.7-0.4-1.1c0-0.2,0-0.4,0.1-0.6l7.5-18c0.2-0.4,0.4-0.7,0.7-0.9c0.3-0.2,0.7-0.3,1.1-0.3c0.4,0,0.7,0.1,1,0.3
					c0.3,0.2,0.5,0.5,0.7,0.9l7.4,17.7C316.2,275.5,316.3,275.8,316.3,276z M303.9,269.4h6l-3-7.1L303.9,269.4z"/>
			</g>
			<g id="XMLID_372_">
				<path id="XMLID_95_" class="st22" d="M314.6,278.3c-0.5,0-0.9-0.1-1.3-0.4c-0.4-0.3-0.6-0.6-0.8-1.1l-1.4-3.3h-8.3l-1.4,3.4
					c-0.2,0.5-0.4,0.8-0.8,1.1c-0.4,0.3-0.8,0.4-1.2,0.4c-0.7,0-1.2-0.2-1.5-0.6c-0.4-0.4-0.5-0.9-0.5-1.5c0-0.2,0-0.5,0.1-0.7
					l7.5-18.1c0.2-0.5,0.5-0.9,0.9-1.2c0.4-0.3,0.9-0.4,1.4-0.4c0,0,0,0,0,0c0.4,0,0.8,0.1,1.2,0.4c0.4,0.3,0.7,0.7,0.9,1.1
					l7.4,17.6c0.1,0.3,0.2,0.6,0.2,0.9c0,0.7-0.2,1.2-0.7,1.6C315.7,278.1,315.2,278.3,314.6,278.3z M302.1,272.4h9.6l1.7,3.9
					c0.1,0.3,0.3,0.5,0.5,0.7c0.5,0.3,1.1,0.3,1.5-0.1c0.2-0.2,0.4-0.5,0.4-0.9c0-0.2,0-0.3-0.1-0.5l-7.4-17.6
					c-0.1-0.3-0.3-0.5-0.5-0.7c-0.2-0.2-0.5-0.2-0.7-0.2c-0.3,0-0.6,0-0.8,0.2c-0.2,0.2-0.4,0.4-0.5,0.7l-7.5,18
					c0,0.1-0.1,0.2-0.1,0.4c0,0.4,0.1,0.6,0.3,0.8c0.2,0.2,0.4,0.3,0.8,0.3c0.2,0,0.5-0.1,0.7-0.2c0.2-0.2,0.4-0.4,0.5-0.7
					L302.1,272.4z M310.7,269.9h-7.5l3.7-8.8L310.7,269.9z M304.6,268.9h4.5l-2.3-5.3L304.6,268.9z"/>
			</g>
		</g>
		<g id="XMLID_321_">
			<g id="XMLID_353_">
				<path id="XMLID_96_" class="st21" d="M336,275.3c0.2,0.3,0.2,0.5,0.2,0.8c0,0.4-0.1,0.7-0.4,1c-0.3,0.4-0.8,0.5-1.4,0.5
					c-0.5,0-0.9-0.1-1.3-0.3c-1.4-0.8-2.2-2.5-2.2-5c0-0.7-0.2-1.3-0.7-1.7c-0.5-0.4-1.2-0.6-2-0.6h-5.6v5.8c0,0.5-0.1,1-0.4,1.3
					c-0.3,0.3-0.7,0.5-1.2,0.5c-0.6,0-1.1-0.2-1.5-0.5c-0.4-0.4-0.6-0.8-0.6-1.3v-17.4c0-0.5,0.2-1,0.5-1.3c0.4-0.4,0.8-0.5,1.3-0.5
					h8.7c1,0,2,0.3,3,0.8c0.9,0.6,1.7,1.3,2.2,2.3c0.6,1,0.8,2.1,0.8,3.3c0,1-0.3,2-0.8,2.9c-0.5,1-1.2,1.7-2.1,2.3
					c1.3,0.9,2,2.1,2.1,3.6c0.1,0.3,0.1,0.6,0.1,0.9c0.1,0.6,0.2,1.1,0.2,1.3c0.1,0.3,0.3,0.5,0.5,0.6
					C335.7,274.8,335.9,275.1,336,275.3z M330.3,266.3c0.3-0.3,0.6-0.8,0.8-1.4c0.2-0.6,0.3-1.2,0.3-1.9c0-0.6-0.1-1.1-0.3-1.6
					c-0.2-0.5-0.5-0.8-0.8-1.1s-0.7-0.4-1.1-0.4h-6.6v6.8h6.6C329.6,266.8,329.9,266.7,330.3,266.3z"/>
			</g>
			<g id="XMLID_364_">
				<path id="XMLID_98_" class="st22" d="M334.5,278.2c-0.6,0-1.1-0.1-1.6-0.4c-1.6-0.9-2.4-2.8-2.4-5.5c0-0.6-0.2-1-0.5-1.3
					c-0.4-0.3-0.9-0.5-1.7-0.5h-5.1v5.3c0,0.7-0.2,1.2-0.6,1.7c-0.4,0.5-0.9,0.7-1.5,0.7c-0.7,0-1.3-0.2-1.8-0.6
					c-0.6-0.4-0.8-1-0.8-1.7v-17.4c0-0.7,0.2-1.2,0.7-1.7c0.4-0.4,1-0.7,1.7-0.7h8.7c1.1,0,2.2,0.3,3.2,0.9c1,0.6,1.8,1.4,2.4,2.5
					c0.6,1.1,0.9,2.3,0.9,3.6c0,1.1-0.3,2.2-0.9,3.2c-0.5,0.8-1,1.5-1.7,2c1,0.9,1.6,2.1,1.7,3.5c0.1,0.3,0.1,0.6,0.1,1
					c0.1,0.5,0.1,1,0.2,1.2c0,0.1,0.1,0.2,0.3,0.3c0.4,0.2,0.6,0.5,0.8,0.8l0,0c0.2,0.3,0.3,0.7,0.3,1.1c0,0.5-0.2,0.9-0.5,1.3
					C335.9,277.9,335.3,278.2,334.5,278.2z M322.1,269.4h6.1c1,0,1.8,0.3,2.4,0.8c0.6,0.5,0.9,1.2,0.9,2.1c0,2.3,0.6,3.9,1.9,4.6
					c0.3,0.2,0.7,0.3,1.1,0.3c0.5,0,0.8-0.1,1-0.4c0.2-0.2,0.2-0.4,0.2-0.7c0-0.2-0.1-0.4-0.2-0.6c-0.1-0.2-0.3-0.3-0.4-0.5
					c-0.4-0.2-0.6-0.5-0.8-0.9c-0.1-0.3-0.2-0.8-0.3-1.4c0-0.3,0-0.6-0.1-0.9c-0.1-1.4-0.7-2.4-1.9-3.2l-0.6-0.4l0.6-0.4
					c0.8-0.5,1.4-1.2,1.9-2.1c0.5-0.9,0.7-1.8,0.7-2.7c0-1.1-0.3-2.2-0.8-3.1c-0.5-0.9-1.2-1.6-2-2.1c-0.8-0.5-1.7-0.8-2.7-0.8h-8.7
					c-0.4,0-0.7,0.1-1,0.4c-0.3,0.3-0.4,0.6-0.4,1v17.4c0,0.4,0.1,0.7,0.5,0.9c0.3,0.3,0.7,0.4,1.2,0.4c0.3,0,0.6-0.1,0.8-0.3
					c0.2-0.3,0.3-0.6,0.3-1V269.4z M329.2,267.3h-7.1v-7.8h7.1c0.5,0,0.9,0.2,1.4,0.5c0.4,0.3,0.7,0.8,1,1.3
					c0.3,0.5,0.4,1.1,0.4,1.8c0,0.7-0.1,1.4-0.4,2c-0.2,0.6-0.6,1.2-1,1.5C330.2,267.1,329.7,267.3,329.2,267.3z M323.1,266.3h6.1
					c0.2,0,0.5-0.1,0.7-0.4v0c0.3-0.3,0.5-0.7,0.7-1.2c0.2-0.5,0.3-1.1,0.3-1.7c0-0.5-0.1-0.9-0.3-1.3c-0.2-0.4-0.4-0.7-0.7-1
					c-0.3-0.2-0.5-0.3-0.7-0.3h-6.1V266.3z"/>
			</g>
		</g>
		<g id="XMLID_351_">
			<g id="XMLID_211_">
				<path id="XMLID_99_" class="st21" d="M354.3,257c0.3,0.3,0.5,0.7,0.5,1.3c0,0.5-0.2,0.9-0.5,1.3c-0.3,0.3-0.8,0.5-1.3,0.5h-4.7
					v15.8c0,0.5-0.2,1-0.6,1.3c-0.4,0.4-0.9,0.5-1.4,0.5c-0.6,0-1-0.2-1.4-0.5c-0.4-0.4-0.5-0.8-0.5-1.3V260h-4.7
					c-0.5,0-1-0.2-1.3-0.5c-0.3-0.3-0.5-0.7-0.5-1.3c0-0.5,0.2-0.9,0.5-1.2c0.4-0.3,0.8-0.5,1.3-0.5H353
					C353.5,256.5,353.9,256.7,354.3,257z"/>
			</g>
			<g id="XMLID_357_">
				<path id="XMLID_100_" class="st22" d="M346.2,278.1c-0.7,0-1.3-0.2-1.7-0.7c-0.5-0.4-0.7-1-0.7-1.7v-15.3h-4.2
					c-0.7,0-1.2-0.2-1.7-0.6c-0.4-0.4-0.7-1-0.7-1.6c0-0.6,0.2-1.2,0.7-1.6c0.4-0.4,1-0.6,1.6-0.6H353c0.7,0,1.2,0.2,1.7,0.6l0,0
					c0.4,0.4,0.7,1,0.7,1.6c0,0.7-0.2,1.2-0.7,1.6c-0.4,0.4-1,0.6-1.7,0.6h-4.2v15.3c0,0.7-0.2,1.2-0.7,1.7
					C347.5,277.9,346.9,278.1,346.2,278.1z M339.6,257c-0.4,0-0.7,0.1-1,0.4c-0.2,0.2-0.4,0.5-0.4,0.9c0,0.4,0.1,0.7,0.4,0.9
					c0.2,0.2,0.6,0.3,1,0.3h5.2v16.3c0,0.4,0.1,0.7,0.4,1c0.5,0.5,1.5,0.5,2.1,0c0.3-0.3,0.4-0.6,0.4-0.9v-16.3h5.2
					c0.4,0,0.7-0.1,1-0.3c0.2-0.2,0.3-0.5,0.3-0.9c0-0.4-0.1-0.7-0.4-0.9c-0.2-0.2-0.6-0.3-1-0.3H339.6z"/>
			</g>
		</g>
	</g>
	<g id="XMLID_74_">
		<path id="XMLID_395_" class="st21" d="M355.1,329.4c-0.9,0-1.5-0.1-1.7-0.1H330c-0.9,0-1.6-0.7-1.6-1.6s0.7-1.6,1.6-1.6l23.7,0
			c0.1,0,6,0.7,9.8-2.5c2-1.7,3-4.2,3.1-7.4c0-0.9,0.8-1.5,1.6-1.5c0.9,0,1.5,0.8,1.5,1.6c-0.2,4.2-1.6,7.5-4.3,9.7
			C362.1,329,357.6,329.4,355.1,329.4z"/>
	</g>
	<g id="XMLID_75_">
		<path id="XMLID_394_" class="st21" d="M368.2,311.1c-0.9,0-1.6-0.7-1.6-1.6v-21.1c0-0.9,0.7-1.6,1.6-1.6s1.6,0.7,1.6,1.6v21.1
			C369.7,310.4,369,311.1,368.2,311.1z"/>
	</g>
	<g id="XMLID_101_">
		<path id="XMLID_393_" class="st21" d="M175.8,133h-41.1c-0.9,0-1.6-0.7-1.6-1.6s0.7-1.6,1.6-1.6h41.1c0.9,0,1.6,0.7,1.6,1.6
			S176.6,133,175.8,133z"/>
	</g>
	<g id="XMLID_102_">
		<path id="XMLID_392_" class="st21" d="M200,133h-15.2c-0.9,0-1.6-0.7-1.6-1.6s0.7-1.6,1.6-1.6H200c0.9,0,1.6,0.7,1.6,1.6
			S200.8,133,200,133z"/>
	</g>
	<g id="XMLID_103_">
		<path id="XMLID_390_" class="st21" d="M180.2,531.7c-21.5,0-25.8-27.9-25.9-28.2c-0.1-0.9,0.5-1.7,1.3-1.8
			c0.9-0.1,1.7,0.5,1.8,1.3c0,0.3,3.9,25.5,22.8,25.5c0.9,0,1.6,0.7,1.6,1.6S181.1,531.7,180.2,531.7z"/>
	</g>
	<g id="XMLID_104_">
		<path id="XMLID_388_" class="st21" d="M401.4,531.7c-0.9,0-1.6-0.7-1.6-1.6s0.7-1.6,1.6-1.6c18.8,0,22.7-25.3,22.8-25.5
			c0.1-0.9,0.9-1.5,1.8-1.3c0.9,0.1,1.5,0.9,1.3,1.8C427.3,503.8,423,531.7,401.4,531.7z"/>
	</g>
	<g id="XMLID_105_">
		<path id="XMLID_387_" class="st21" d="M363.3,179.7h-22.8c-0.9,0-1.6-0.7-1.6-1.6s0.7-1.6,1.6-1.6h22.8c0.9,0,1.6,0.7,1.6,1.6
			S364.2,179.7,363.3,179.7z"/>
	</g>
</g>
<g id="Left_Arm">
	<g id="XMLID_142_">
		<polygon id="XMLID_477_" class="st23" points="224.1,474.8 220.2,468.5 212.2,462 204.4,459.9 198.5,463.5 198.5,470.6 206,478.4 
			216.4,481.5 224.4,479.5 		"/>
	</g>
	<g id="XMLID_138_">
		<path id="XMLID_475_" class="st24" d="M224.1,481.5h-13.5c0,0,12.2,63,60.3,63.6l5.9-11.1l7.8-11.3
			C284.7,522.7,242.6,523.7,224.1,481.5z"/>
	</g>
	<g id="XMLID_137_">
		<polygon id="XMLID_473_" class="st25" points="224.4,479.5 210.7,481.5 210.9,489.8 220.2,491.2 226.4,489.8 		"/>
	</g>
	<g id="XMLID_136_">
		<path id="XMLID_471_" class="st26" d="M220.2,491.2c0,0,16.1,46.3,55.2,46l-2.7,8.1c0,0-45.2-3-59.4-54H220.2z"/>
	</g>
	<g id="XMLID_283_">
		<g id="XMLID_109_">
			<path id="XMLID_315_" class="st21" d="M272.7,547.7C272.7,547.7,272.7,547.7,272.7,547.7c-0.6,0-13.9-0.2-28.7-8.9
				c-13.6-8-30.9-24.8-36.4-60.1l-0.5-2.9h19l0.4,2c0,0.1,2,9.3,10.2,19.1c10.9,13,28,21,49.2,23.3c1.4,0.2,2.4,1.4,2.2,2.8
				c-0.1,1.4-1.4,2.4-2.8,2.2c-28.7-3.1-44.5-15.5-52.7-25.3c-6.7-8-9.6-15.6-10.6-19.1h-9.1c4.5,25.1,15.7,43.1,33.2,53.5
				c13.6,8.1,26.2,8.3,26.3,8.3c1.4,0,2.5,1.2,2.5,2.5C275.2,546.6,274.1,547.7,272.7,547.7z"/>
		</g>
		<g id="XMLID_110_">
			<path id="XMLID_314_" class="st21" d="M210.2,480.9c-0.3,0-0.5,0-0.8-0.1c-1.2-0.4-11.7-4.2-14-11c-0.6-1.8-0.9-4.7,1.3-8
				c3.1-4.6,9.4-5.1,16.8-1.3c8.1,4.2,15.4,12.6,13,18.8c-0.5,1.3-1.9,2-3.2,1.5c-1.3-0.5-2-1.9-1.5-3.2c1-2.7-3.7-9-10.6-12.6
				c-3.8-2-8.5-3.1-10.3-0.4c-1.1,1.7-1,2.8-0.7,3.6c1.3,3.8,8.4,7,10.9,7.9c1.3,0.5,2,1.9,1.6,3.2
				C212.2,480.2,211.2,480.9,210.2,480.9z"/>
		</g>
	</g>
	<g id="XMLID_106_">
		<path id="XMLID_313_" class="st21" d="M221.2,492.5c-5,0-9.5-2.3-9.8-2.5c-0.8-0.4-1.1-1.4-0.7-2.1s1.4-1.1,2.1-0.7
			c0.1,0.1,8.8,4.5,14.2,0.2c0.7-0.5,1.7-0.4,2.2,0.2c0.5,0.7,0.4,1.7-0.2,2.2C226.7,491.9,223.9,492.5,221.2,492.5z"/>
	</g>
</g>
<g id="Right_Am">
	<g id="XMLID_140_">
		<polygon id="XMLID_461_" class="st23" points="388.6,474.8 392.5,468.5 400.5,462 408.3,459.9 414.2,463.5 414.2,470.6 
			406.7,478.4 396.4,481.5 388.3,479.5 		"/>
	</g>
	<g id="XMLID_135_">
		<path id="XMLID_459_" class="st24" d="M388.6,481.5h13.5c0,0-12.2,63-60.3,63.6l-5.9-11.1l-7.8-11.3
			C328.1,522.7,370.1,523.7,388.6,481.5z"/>
	</g>
	<g id="XMLID_134_">
		<polygon id="XMLID_457_" class="st25" points="388.3,479.5 402.1,481.5 401.9,489.8 392.6,491.2 386.4,489.8 		"/>
	</g>
	<g id="XMLID_133_">
		<path id="XMLID_455_" class="st26" d="M392.6,491.2c0,0-16.1,46.3-55.2,46l2.7,8.1c0,0,45.2-3,59.4-54H392.6z"/>
	</g>
	<g id="XMLID_280_">
		<g id="XMLID_112_">
			<path id="XMLID_319_" class="st21" d="M341.2,547.7c-1.4,0-2.5-1.1-2.5-2.5c0-1.4,1.1-2.5,2.5-2.5c0.2,0,12.8-0.3,26.3-8.3
				c17.5-10.4,28.7-28.4,33.2-53.5h-9.1c-1.1,3.5-3.9,11.1-10.6,19.1c-8.2,9.8-24,22.2-52.7,25.3c-1.4,0.1-2.6-0.9-2.8-2.2
				c-0.1-1.4,0.9-2.6,2.2-2.8C349.1,518,366.1,510,377,497c8.3-9.8,10.2-19.1,10.3-19.1l0.4-2l19,0l-0.5,2.9
				c-5.5,35.3-22.8,52.1-36.4,60.1C355.1,547.5,341.8,547.7,341.2,547.7C341.2,547.7,341.2,547.7,341.2,547.7z"/>
		</g>
		<g id="XMLID_113_">
			<path id="XMLID_318_" class="st21" d="M403.8,480.9c-1,0-2-0.7-2.4-1.7c-0.5-1.3,0.3-2.8,1.6-3.2c2.4-0.8,9.6-4.1,10.9-7.9
				c0.2-0.7,0.4-1.9-0.7-3.5c-1.9-2.7-6.6-1.6-10.3,0.4c-6.9,3.6-11.6,9.9-10.6,12.6c0.5,1.3-0.2,2.8-1.5,3.2
				c-1.3,0.5-2.8-0.2-3.2-1.5c-2.3-6.2,4.9-14.6,13-18.8c7.4-3.8,13.7-3.3,16.8,1.3c2.2,3.3,1.9,6.1,1.3,8c-2.3,6.8-12.8,10.6-14,11
				C404.3,480.8,404,480.9,403.8,480.9z"/>
		</g>
	</g>
	<g id="XMLID_111_">
		<path id="XMLID_317_" class="st21" d="M393.3,492.5c-2.7,0-5.5-0.7-7.9-2.6c-0.7-0.5-0.8-1.5-0.2-2.2c0.5-0.7,1.5-0.8,2.2-0.2
			c5.5,4.4,14.2-0.1,14.2-0.2c0.8-0.4,1.7-0.1,2.1,0.7c0.4,0.8,0.1,1.7-0.7,2.1C402.7,490.2,398.3,492.5,393.3,492.5z"/>
	</g>
</g>
<g id="Leg">
	<g id="XMLID_132_">
		<path id="XMLID_445_" class="st27" d="M270.9,576.1l-4.1,21.5l-3.8,34.8v12.9c0,0,10,14.5,24.7,5.7l4.8-42.9c0,0,17.7,5.3,28.1,0
			l1.8,13.8l3.6,29.6l6.9,1.6l7.5,0.1l11.6-9l-2.6-37.5l-6.6-30.6C342.8,576.1,307.4,611.6,270.9,576.1z"/>
	</g>
	<g id="XMLID_131_">
		<path id="XMLID_443_" class="st28" d="M281.5,584.6c0,0-10.5,31.7-6.7,67c0,0-7.6,0-11.8-6.2c0,0,2.3-63.8,7.9-69.2L281.5,584.6z"
			/>
	</g>
	<g id="XMLID_130_">
		<path id="XMLID_441_" class="st28" d="M330.7,584.6c0,0,10.5,31.7,6.7,67c0,0,7.6,0,11.8-6.2c0,0-2.3-63.8-7.9-69.2L330.7,584.6z"
			/>
	</g>
	<g id="XMLID_129_">
		<path id="XMLID_439_" class="st29" d="M263.1,645.3c0,0,7.9,13.4,24.7,5.7l-2.4,13.5c0,0-13,6.2-22.3-2.3V645.3z"/>
	</g>
	<g id="XMLID_128_">
		<path id="XMLID_437_" class="st29" d="M350,645.3c0,0-7.9,13.4-24.7,5.7l2.4,13.5c0,0,13,6.2,22.3-2.3V645.3z"/>
	</g>
	<g id="XMLID_127_">
		<path id="XMLID_435_" class="st25" d="M259.9,658.2c0,0-17.1,6.4-17.6,21.4h40.1l3.4-17.3c0,0-8.2,11.6-22.7,0v-4H259.9z"/>
	</g>
	<g id="XMLID_126_">
		<path id="XMLID_433_" class="st25" d="M353.3,658.2c0,0,17.1,6.4,17.6,21.4h-40.1l-3.4-17.3c0,0,8.2,11.6,22.7,0l0-4H353.3z"/>
	</g>
	<g id="XMLID_290_">
		<g id="XMLID_125_">
			<path id="XMLID_335_" class="st21" d="M266.5,682.1c-1.1,0-2.2-0.8-2.4-1.9c-9.7-38.5,3.6-106.1,4.1-109c0.3-1.4,1.6-2.3,3-2
				c1.4,0.3,2.3,1.6,2,3c-0.1,0.7-13.6,69.4-4.2,106.8c0.3,1.4-0.5,2.7-1.8,3.1C266.9,682.1,266.7,682.1,266.5,682.1z"/>
		</g>
		<g id="XMLID_139_">
			<path id="XMLID_334_" class="st21" d="M282.4,682.1c-0.2,0-0.4,0-0.5-0.1c-1.4-0.3-2.2-1.6-1.9-3c0.1-0.4,9.3-42.6,10.1-72.4
				l0.1-4.8l3.9,2.8c0,0,5.2,3.7,12.5,3.7c1.4,0,2.5,1.1,2.5,2.5s-1.1,2.5-2.5,2.5c-4.9,0-8.9-1.3-11.6-2.5
				c-1.5,29.9-10,68.9-10.1,69.3C284.6,681.3,283.6,682.1,282.4,682.1z"/>
		</g>
		<g id="XMLID_141_">
			<path id="XMLID_333_" class="st21" d="M240.9,682.1c-0.1,0-0.2,0-0.3,0c-1.4-0.1-2.4-1.4-2.2-2.8c2.3-21.5,24.2-23.6,24.4-23.6
				c1.4-0.1,2.6,0.9,2.7,2.3c0.1,1.4-0.9,2.6-2.3,2.7c-0.8,0.1-18,1.8-19.9,19.1C243.3,681.1,242.2,682.1,240.9,682.1z"/>
		</g>
	</g>
	<g id="XMLID_286_">
		<g id="XMLID_143_">
			<path id="XMLID_332_" class="st21" d="M346.7,682.1c-0.2,0-0.4,0-0.6-0.1c-1.4-0.3-2.2-1.7-1.8-3.1c9.4-37.4-4-106.1-4.2-106.8
				c-0.3-1.4,0.6-2.7,2-3c1.4-0.3,2.7,0.6,3,2c0.6,2.9,13.8,70.5,4.1,109C348.9,681.3,347.8,682.1,346.7,682.1z"/>
		</g>
		<g id="XMLID_144_">
			<path id="XMLID_331_" class="st21" d="M330.8,682.1c-1.2,0-2.2-0.8-2.5-2c-0.1-0.4-8.6-39.4-10.1-69.3c-2.7,1.2-6.8,2.5-11.6,2.5
				c-1.4,0-2.5-1.1-2.5-2.5s1.1-2.5,2.5-2.5c7.4,0,12.5-3.6,12.5-3.7l3.9-2.8l0.1,4.8c0.8,29.9,10,72,10.1,72.4
				c0.3,1.4-0.6,2.7-1.9,3C331.2,682.1,331,682.1,330.8,682.1z"/>
		</g>
		<g id="XMLID_145_">
			<path id="XMLID_330_" class="st21" d="M372.3,682.1c-1.3,0-2.4-1-2.5-2.3c-1.8-17.4-19.1-19.1-19.8-19.1
				c-1.4-0.1-2.4-1.3-2.3-2.7c0.1-1.4,1.4-2.4,2.7-2.3c0.2,0,22.2,2.1,24.4,23.6c0.1,1.4-0.9,2.6-2.2,2.8
				C372.5,682.1,372.4,682.1,372.3,682.1z"/>
		</g>
	</g>
	<g id="XMLID_275_">
		<g id="XMLID_213_">
			<path id="XMLID_329_" class="st21" d="M275.4,668.4c-3.5,0-7.7-1.1-12.5-4.4c-0.7-0.5-0.9-1.5-0.4-2.2s1.5-0.9,2.2-0.4
				c12.8,8.6,19.6,0.2,19.9-0.2c0.5-0.7,1.5-0.8,2.2-0.3c0.7,0.5,0.8,1.5,0.3,2.2C287,663.2,282.9,668.4,275.4,668.4z"/>
		</g>
		<g id="XMLID_218_">
			<path id="XMLID_328_" class="st21" d="M277.6,654.8c-5.3,0-11.4-1.8-15.9-8.6c-0.5-0.7-0.3-1.7,0.5-2.2c0.7-0.5,1.7-0.3,2.2,0.5
				c8,12.1,22.1,5.5,22.7,5.2c0.8-0.4,1.7,0,2.1,0.7c0.4,0.8,0.1,1.7-0.7,2.1C288.4,652.5,283.6,654.8,277.6,654.8z"/>
		</g>
	</g>
	<g id="XMLID_272_">
		<g id="XMLID_227_">
			<path id="XMLID_327_" class="st21" d="M337,668.4c-7.5,0-11.6-5.2-11.7-5.3c-0.5-0.7-0.4-1.7,0.3-2.2c0.7-0.5,1.7-0.4,2.2,0.3
				c0.3,0.4,7.1,8.8,19.9,0.2c0.7-0.5,1.7-0.3,2.2,0.4c0.5,0.7,0.3,1.7-0.4,2.2C344.7,667.3,340.5,668.4,337,668.4z"/>
		</g>
		<g id="XMLID_245_">
			<path id="XMLID_326_" class="st21" d="M334.8,654.8c-5.9,0-10.7-2.3-10.8-2.3c-0.8-0.4-1.1-1.3-0.7-2.1c0.4-0.8,1.3-1.1,2.1-0.7
				c0.6,0.3,14.8,6.9,22.7-5.2c0.5-0.7,1.5-0.9,2.2-0.5c0.7,0.5,0.9,1.5,0.5,2.2C346.2,653,340.1,654.8,334.8,654.8z"/>
		</g>
	</g>
</g>
<g id="Body">
	<g id="XMLID_124_">
		<path id="XMLID_406_" class="st25" d="M292.6,518.8l-7.8,6.2l-9.4,12.1l-4.5,18v17l14.9,13.9l15,5l17.8-1.3l18.3-11.1l5.7-7
			c0,0,0.7-48.2-20.4-52.1l-1.8,6l-4.6,3.8l-19.7,0.9l-1.8-2.5L292.6,518.8z"/>
	</g>
	<g id="XMLID_271_">
		<path id="XMLID_404_" class="st30" d="M299.4,529.3c0,0-18.2,23.7-6.8,59l-6.8-2.2l-14.9-10v-21l4.5-24.9l13.1-9.3l4.1-2.1
			l1.9,8.9L299.4,529.3z"/>
	</g>
	<g id="XMLID_278_">
		<path id="XMLID_402_" class="st31" d="M318.7,528.1c0,0,14.3,5.8,15.4,50.4l8.7-6.8c0,0-0.9-40.8-20.4-52.1L318.7,528.1z"/>
	</g>
	<g id="XMLID_285_">
		<path id="XMLID_324_" class="st21" d="M306.6,593.9c-26.1,0-37.7-20.2-38.2-21l-0.3-0.5l0-0.6c-2.9-46.8,22.7-55.1,23.7-55.4
			c1.3-0.4,2.7,0.3,3.1,1.7c0.4,1.3-0.3,2.7-1.7,3.1c-0.9,0.3-22.6,7.7-20.2,49.7c1.8,2.9,12.2,18,33.5,18c1.4,0,2.5,1.1,2.5,2.5
			S308,593.9,306.6,593.9z"/>
	</g>
	<g id="XMLID_288_">
		<path id="XMLID_323_" class="st21" d="M306.6,593.9c-1.4,0-2.5-1.1-2.5-2.5s1.1-2.5,2.5-2.5c21.1,0,31.7-15.1,33.5-18
			c2.4-42.3-20-49.6-20.2-49.7c-1.3-0.4-2.1-1.8-1.7-3.1c0.4-1.3,1.8-2.1,3.1-1.7c1.1,0.3,26.6,8.6,23.7,55.4l0,0.6l-0.3,0.5
			C344.3,573.8,332.7,593.9,306.6,593.9z"/>
	</g>
	<g id="XMLID_289_">
		<path id="XMLID_322_" class="st21" d="M320.6,561.4c-0.8,0-1.6-0.4-2.1-1.1c-3.9-5.8-7.7-8.7-11.4-8.5c-6,0.3-10.3,8.2-10.4,8.3
			c-0.7,1.2-2.2,1.7-3.4,1c-1.2-0.7-1.7-2.2-1-3.4c0.2-0.4,5.8-10.5,14.6-10.9c5.6-0.3,10.9,3.3,15.8,10.7c0.8,1.2,0.5,2.7-0.7,3.5
			C321.6,561.3,321.1,561.4,320.6,561.4z"/>
	</g>
</g>
<g id="Neck">
	<g id="XMLID_310_">
		<g id="XMLID_292_">
			<polygon id="XMLID_370_" class="st23" points="292.6,518.8 294.5,527.7 305.1,530.2 316,529.3 320.6,522.7 320.6,508.3 
				292.6,508.3 			"/>
		</g>
		<g id="XMLID_293_">
			<path id="XMLID_368_" class="st32" d="M292.6,515c0,0,16,9,28,0v-6.7h-28V515z"/>
		</g>
	</g>
	<g id="XMLID_291_">
		<path id="XMLID_307_" class="st21" d="M312.3,532.7h-12.2c-5.5,0-10-4.5-10-10v-17.8h33v17C323.1,527.9,318.3,532.7,312.3,532.7z
			 M295.1,510v12.7c0,2.8,2.2,5,5,5h12.2c3.2,0,5.8-2.6,5.8-5.8v-12H295.1z"/>
	</g>
</g>
<g id="Head">
	<g id="XMLID_294_">
		<polygon id="XMLID_316_" class="st23" points="232.4,452.9 231.9,474 231.9,488.7 236.6,500.5 248,508.3 263.1,508.3 367.1,506.3 
			374.5,500.9 380.8,485.9 380.8,459.9 380.8,417.2 374.5,410 362,401.9 252,401.9 242.3,405.5 235.6,412.4 232.4,430.9 		"/>
	</g>
	<g id="XMLID_295_">
		<polygon id="XMLID_391_" class="st23" points="231.9,437.4 224.4,439.3 217,448.8 216.4,456.5 219.3,462 231.9,469.4 		"/>
	</g>
	<g id="XMLID_296_">
		<polygon id="XMLID_389_" class="st23" points="380.8,437.4 388.3,439.3 395.8,448.8 396.4,456.5 393.5,462 380.8,469.4 		"/>
	</g>
	<g id="XMLID_297_">
		<path id="XMLID_299_" class="st32" d="M232.4,484.5c0,0,1.9,10.1,23.7,10.1c21.8,0,50.2,0,50.2,0v11.2H248
			C248,505.9,232.9,499.6,232.4,484.5z"/>
	</g>
	<g id="XMLID_298_">
		<path id="XMLID_305_" class="st32" d="M382.3,484.5c0,0-1.9,10.1-23.7,10.1c-21.8,0-56.8,0-56.8,0v12.8h64
			C365.7,507.4,381.8,499.6,382.3,484.5z"/>
	</g>
	<g id="XMLID_300_">
		<path id="XMLID_383_" class="st32" d="M217,448.8c0,0,6.7,13.8,15.5,11.1v7.4C232.4,467.3,219.1,470.6,217,448.8z"/>
	</g>
	<g id="XMLID_301_">
		<path id="XMLID_381_" class="st32" d="M396.1,448.8c0,0-6.7,13.8-15.5,11.1v7.4C380.6,467.3,393.9,470.6,396.1,448.8z"/>
	</g>
	<g id="XMLID_302_">
		<path id="XMLID_303_" class="st21" d="M359,510H254.2c-13.4,0-24.3-10.9-24.3-24.3v-61.9c0-13.4,10.9-24.3,24.3-24.3H359
			c13.4,0,24.3,10.9,24.3,24.3v61.9C383.3,499,372.4,510,359,510z M254.2,404.4c-10.6,0-19.3,8.6-19.3,19.3v61.9
			c0,10.6,8.6,19.3,19.3,19.3H359c10.6,0,19.3-8.6,19.3-19.3v-61.9c0-10.6-8.6-19.3-19.3-19.3H254.2z"/>
	</g>
	<g id="XMLID_336_">
		<path id="XMLID_337_" class="st21" d="M231.9,471c-10,0-18.1-8.1-18.1-18.1s8.1-18.1,18.1-18.1c1.4,0,2.5,1.1,2.5,2.5
			s-1.1,2.5-2.5,2.5c-7.2,0-13,5.8-13,13s5.8,13,13,13c1.4,0,2.5,1.1,2.5,2.5S233.3,471,231.9,471z"/>
	</g>
	<g id="XMLID_348_">
		<path id="XMLID_350_" class="st21" d="M380.8,471c-1.4,0-2.5-1.1-2.5-2.5s1.1-2.5,2.5-2.5c7.2,0,13-5.8,13-13s-5.8-13-13-13
			c-1.4,0-2.5-1.1-2.5-2.5s1.1-2.5,2.5-2.5c10,0,18.1,8.1,18.1,18.1S390.8,471,380.8,471z"/>
	</g>
</g>
<g id="Hair">
	<g id="XMLID_352_">
		<path id="XMLID_360_" class="st33" d="M326.6,362.1l-16.4-6.9l-9.3-1.4l-11.9,2.9l-11.7,8.9l-10.5,2l-11,0.6l-9.5,4.5l-7.6,9.9
			l-2,12.4h-12.3l-8.1,9.7l-4.2,11.9l4.2,16.6l6.6,8.8l9.2,5.9c0,0,11.1,16.5,23.8,12.6c0,0,13.3,17.5,30,17.8l11.4,8.9l10,3.9
			l11.5-1.4l14.2-10.5l19.1-12.8l19.1-10l14.2-1.4l14-6.1l3.7-13.4l-6.5-16.4c0,0,7.3-29.1-22-40.1l-3.5-3.9
			C371.1,375.2,362.5,349.8,326.6,362.1z"/>
	</g>
	<g id="XMLID_354_">
		<path id="XMLID_358_" class="st34" d="M216.4,404.8c0,0-4.7,34.2,28,33.9c0,0,0.6,16.3,20.6,10.4c0,0,5.9,20.5,27.7,18.5
			c0,0,20.1,28.6,46.1,6.5l-16.3,14.7l-12.2,3.7l-10.9-2.6l-13.5-11.4c0,0-19.2,0.6-30-17.8c0,0-17.8,2.1-23.8-12.6
			C232.1,448,203.9,437.5,216.4,404.8z"/>
	</g>
	<g id="XMLID_356_">
		<path id="XMLID_386_" class="st34" d="M360.6,462c1.3-0.7-0.8-5.7,26-15.4c0,0,10.9-7.5,9.8-27.3c0,0,12.6,20.3-1.6,31.7
			l-14.1,5.1l-9.7,0.4L360.6,462z"/>
	</g>
	<g id="XMLID_425_">
		<path id="XMLID_426_" class="st35" d="M236.8,395c0,0,13.4-28.4,43.2-15.1c0,0,6.6-24,46.7-17.9c0,0-28.8-21.1-49.3,3.5l-6.4,1.8
			C270.9,367.4,236.9,362.6,236.8,395z"/>
	</g>
	<g id="XMLID_427_">
		<path id="XMLID_428_" class="st35" d="M337.4,359.4c0,0,29.7,7.8,23.9,30.4c0,0,28.5-5.5,35.1,20.1c0,0,5.7-19.1-21.8-30.9l-5.5-8
			C369,371.1,359.8,354.6,337.4,359.4z"/>
	</g>
	<g id="XMLID_429_">
		<path id="XMLID_430_" class="st35" d="M270.9,412.4c0,0,5.2-16.1,30.8-17.3c0,0-1.2-15.2,25.7-18.3c0,0-22.2-15.9-34.8,12.1
			C292.6,388.9,272.1,393.1,270.9,412.4z"/>
	</g>
	<g id="XMLID_431_">
		<path id="XMLID_432_" class="st35" d="M314.9,419.3c0,0,17.6,7.5,19.7,24.5c0,0,10.6-15.6,31.3-6.4c0,0-13.5-17.4-28.9-5.8
			C337,431.6,340.8,414.8,314.9,419.3z"/>
	</g>
	<g id="XMLID_434_">
		<path id="XMLID_436_" class="st21" d="M311.3,493.7c-0.1,0-0.1,0-0.2,0c-12.9-0.1-23.4-9.8-26.3-12.8
			c-19.4-0.2-27.2-12.6-29.5-17.7c-14.3,1.6-23-10.2-25-13.5c-4.4-1.9-24.1-11.9-20.5-35.1c1.4-8.6,4.8-14.9,10.3-18.6
			c5-3.5,10.5-3.9,13.7-3.8c0.4-4.7,2.3-14.1,10-20.7c7.2-6.2,17.5-8.3,30.6-6.3c2.5-3.2,9.5-11,21-13.4c10-2.1,20.6,0.4,31.7,7.4
			c4.5-1.5,20-6,32.8,0.1c6.8,3.3,11.7,8.9,14.6,16.9c3.9,1.2,14.7,5.2,21.1,15.4c4.7,7.5,5.9,16.6,3.8,27
			c2.1,3.2,8.1,13.5,4.6,23.6c-2.7,7.7-10.1,13.3-22.2,16.6l-0.3,0.1l-0.3,0c-0.4,0-27.9,1.8-48.3,24.2
			C326.3,490.2,319.1,493.7,311.3,493.7z M287,475.8l0.8,0.9c0.1,0.1,10.7,11.9,23.4,12c0,0,0.1,0,0.1,0c6.4,0,12.3-3,17.7-8.9
			c21-23,48.2-25.6,51.4-25.8c10.2-2.8,16.4-7.3,18.5-13.3c3.2-9.3-4.5-19.8-4.6-19.9l-0.7-0.9l0.3-1.1c7.1-30.7-21-37.6-22.2-37.9
			l-1.4-0.3l-0.4-1.4c-2.3-7.3-6.5-12.4-12.3-15.2c-12.8-6.1-29.8,0.4-30,0.4l-1.2,0.5l-1.1-0.7c-10.3-6.8-20-9.2-28.9-7.4
			c-12.2,2.6-18.7,12.5-18.8,12.6l-0.9,1.4l-1.6-0.3c-12.3-2.1-21.7-0.5-28,4.9c-8.6,7.3-8.4,19.5-8.4,19.6l0.1,3.2l-3.1-0.6
			c-0.1,0-7-1.3-12.8,2.7c-4.2,3-7,8.1-8.1,15.2c-3.4,21.9,17.2,29.6,18.1,29.9l0.9,0.3l0.5,0.8c0.3,0.6,8.3,14.2,22.2,11.5l2.2-0.4
			l0.7,2.2c0.2,0.7,5.4,16.4,26.6,16.2L287,475.8z"/>
	</g>
	<g id="XMLID_442_">
		<path id="XMLID_444_" class="st21" d="M270.7,417.6c-1.4,0-2.5-1.1-2.5-2.5c0-0.3-0.1-24.6,22.7-28.5c1.5-3.4,6-11.7,14.8-15
			c7-2.7,15-1.6,23.7,3.3c1.2,0.7,1.7,2.2,1,3.4c-0.7,1.2-2.2,1.7-3.4,1c-7.4-4.1-13.9-5.1-19.5-3c-8.7,3.3-12.4,13.3-12.4,13.4
			l-0.5,1.5l-1.5,0.2c-19.7,2.5-19.8,22.8-19.7,23.7C273.2,416.5,272.1,417.6,270.7,417.6C270.7,417.6,270.7,417.6,270.7,417.6z"/>
	</g>
	<g id="XMLID_446_">
		<path id="XMLID_447_" class="st21" d="M365.9,439.9c-0.8,0-1.5-0.3-2-1c-4.7-6-9.6-9.3-14.6-9.7c-5.8-0.5-10,3-10,3.1l-2.6,2.3
			l-1.4-3.2c-6-14.1-19-9.9-19.6-9.7c-1.3,0.4-2.7-0.3-3.2-1.6c-0.4-1.3,0.3-2.7,1.6-3.2c5.8-2,17.9-2.2,24.5,9.7
			c2.4-1.4,6.3-2.9,11.1-2.5c6.5,0.6,12.6,4.5,18.2,11.7c0.9,1.1,0.7,2.7-0.4,3.5C367,439.8,366.5,439.9,365.9,439.9z"/>
	</g>
	<g id="XMLID_448_">
		<path id="XMLID_449_" class="st21" d="M318.7,476.5c-0.5,0-1.1-0.2-1.5-0.5c-1.1-0.8-1.3-2.4-0.5-3.5c0.7-1,18.1-23.6,44.7-22
			c1.4,0.1,2.5,1.3,2.4,2.7c-0.1,1.4-1.3,2.4-2.7,2.4c-23.9-1.5-40.2,19.8-40.3,20C320.2,476.2,319.5,476.5,318.7,476.5z"/>
	</g>
</g>
<g id="Ground">
	<g id="XMLID_450_">
		<path id="XMLID_451_" class="st21" d="M546.4,682.1H413.6c-1.4,0-2.5-1.1-2.5-2.5s1.1-2.5,2.5-2.5h132.8c1.4,0,2.5,1.1,2.5,2.5
			S547.8,682.1,546.4,682.1z"/>
	</g>
	<g id="XMLID_452_">
		<path id="XMLID_453_" class="st21" d="M400.1,682.1H90c-1.4,0-2.5-1.1-2.5-2.5s1.1-2.5,2.5-2.5h310c1.4,0,2.5,1.1,2.5,2.5
			S401.5,682.1,400.1,682.1z"/>
	</g>
	<g id="XMLID_454_">
		<path id="XMLID_456_" class="st21" d="M79.1,682.1H57.9c-1.4,0-2.5-1.1-2.5-2.5s1.1-2.5,2.5-2.5h21.2c1.4,0,2.5,1.1,2.5,2.5
			S80.5,682.1,79.1,682.1z"/>
	</g>
	<g id="XMLID_458_">
		<path id="XMLID_460_" class="st21" d="M578.5,682.1h-20.7c-1.4,0-2.5-1.1-2.5-2.5s1.1-2.5,2.5-2.5h20.7c1.4,0,2.5,1.1,2.5,2.5
			S579.9,682.1,578.5,682.1z"/>
	</g>
</g>
</svg>
