<?xml version="1.0" encoding="utf-8"?>
<!-- Generator: Adobe Illustrator 19.0.0, SVG Export Plug-In . SVG Version: 6.00 Build 0)  -->
<svg version="1.1" id="Layer_1" xmlns="http://www.w3.org/2000/svg" xmlns:xlink="http://www.w3.org/1999/xlink" x="0px" y="0px"
	 viewBox="0 0 612 792" style="enable-background:new 0 0 612 792;" xml:space="preserve">
<style type="text/css">
	.st0{fill:#F5F7F7;}
	.st1{fill:#E2E2E2;}
	.st2{fill:#FFFFFF;}
	.st3{fill:#C4E0EC;}
	.st4{fill:#FFD46C;}
	.st5{fill:#E1B248;}
	.st6{fill:#FFE09D;}
	.st7{fill:#11426E;}
	.st8{fill:#527B9B;}
	.st9{fill:#74A1D1;}
	.st10{fill:#93BDE5;}
	.st11{fill:#3C586A;}
	.st12{fill:#334E5C;}
	.st13{fill:#12426D;}
	.st14{fill:#78A567;}
	.st15{fill:#E29E62;}
	.st16{fill:#6E945F;}
	.st17{fill:#FBD8AE;}
	.st18{fill:#C4C4C4;}
	.st19{fill:#D3D2D1;}
	.st20{fill:#91C67D;}
	.st21{fill:#F6AD77;}
	.st22{fill:#DE647C;}
	.st23{fill:#C45776;}
	.st24{fill:#EE7F9A;}
	.st25{fill:#FBBA99;}
	.st26{fill:#FFEBD8;}
</style>
<g id="Fire_Hydrant">
	<path id="XMLID_117_" class="st0" d="M501.8,420.5l-8.7,3.7l0.1,6.1l4.3,7.7c0,0-26.6,7.4-31.9,27.9v25.2l-15.2,4.3l-3.8,4.2v7.3
		l4.3,6.8l14.7,1.3v137.7h72.6v-80.1l7.4-0.7l6.8-6.8l7.5-2.5l1.6-5.6l-5.7-7.1l-2.5-1l-1.9-4.3l-4-3.4h-9.1v-24.3l14.1-3l4.7-4.4
		l1.4-7.7l-5-6.4l-1.1-1.6h-14.1v-20.8l-2-10.9l-7.7-12.6l-11.7-8.4l-11.4-3.8l4.5-4.4l-0.1-7.5L501.8,420.5z"/>
	<path id="XMLID_116_" class="st1" d="M464.8,546.9c0,0,1.8-19.9,73.3-19.9v-12.1h-73.3v29.6"/>
	<path id="XMLID_115_" class="st1" d="M472.9,493.3c0,0-3.9,21.7,22.8,21.7h-39.9l-7.5-3.2l-1.8-4.8v-7.3l6.2-4.8l9.2-1L472.9,493.3
		z"/>
	<path id="XMLID_114_" class="st2" d="M501.5,437.2c0,0,9.8,12.1,6.5,56.5h30.1v-20.8l-2-10.9C536.1,462,531.6,437.7,501.5,437.2z"
		/>
	<path id="XMLID_113_" class="st2" d="M495.6,423.1c0,0,9.3,4.3,9.6,14.2l4.5-4.4l-0.1-7.5l-7.8-4.8L495.6,423.1z"/>
	<path id="XMLID_112_" class="st2" d="M530.7,493.3c0,0,12.3,12.6,10.8,21.7l10.8-1l4.7-4.4l1.4-7.7l-6.1-8.1L530.7,493.3z"/>
	<path id="XMLID_111_" class="st1" d="M465.5,593.3v38.6c0,0,8.9-27.2,42.5-27.2v-11.4C507.9,593.3,465.5,595.6,465.5,593.3z"/>
	<polygon id="XMLID_110_" class="st1" points="538.1,557.3 561.3,557.3 559.7,562.5 552.2,565.1 548,571.3 538.1,570.5 	"/>
	<polygon id="XMLID_109_" class="st1" points="487.2,559.3 493,559.3 501.5,562.5 504.4,562.5 510.5,559.3 516.7,559.3 512.9,566.9 
		505.6,571.3 495.6,570.5 489.5,565.3 	"/>
	<polygon id="XMLID_108_" class="st2" points="524,593.3 524,653.8 538.1,652.6 538.1,593.3 	"/>
	<g>
		<g id="XMLID_3_">
			<path id="XMLID_104_" class="st3" d="M538.1,654.2c-1.3,0-2.4-1.1-2.4-2.4V517.4h-67.8v134.4c0,1.3-1.1,2.4-2.4,2.4
				s-2.4-1.1-2.4-2.4V512.5h77.5v139.2C540.5,653.1,539.4,654.2,538.1,654.2z"/>
		</g>
		<g id="XMLID_4_">
			<path id="XMLID_5_" class="st3" d="M547.7,517.4h-91.8c-7.2,0-13-5.8-13-13c0-7.2,5.8-13,13-13h91.8c7.2,0,13,5.8,13,13
				C560.7,511.5,554.8,517.4,547.7,517.4z M455.9,496.2c-4.5,0-8.2,3.7-8.2,8.2c0,4.5,3.7,8.2,8.2,8.2h91.8c4.5,0,8.2-3.7,8.2-8.2
				c0-4.5-3.7-8.2-8.2-8.2H455.9z"/>
		</g>
		<g id="XMLID_6_">
			<path id="XMLID_7_" class="st3" d="M540.5,496.2h-77.5v-21.6c0-21.5,17.5-39.1,39.1-39.1c21.2,0,38.4,17.2,38.4,38.4V496.2z
				 M467.9,491.3h67.8v-17.4c0-18.5-15-33.5-33.5-33.5c-18.9,0-34.2,15.3-34.2,34.2V491.3z"/>
		</g>
		<g id="XMLID_8_">
			<path id="XMLID_9_" class="st3" d="M501.8,440.4c-6.2,0-11.2-5-11.2-11.2c0-6.2,5-11.2,11.2-11.2c6.2,0,11.2,5,11.2,11.2
				C512.9,435.4,507.9,440.4,501.8,440.4z M501.8,422.9c-3.5,0-6.3,2.8-6.3,6.3c0,3.5,2.8,6.3,6.3,6.3c3.5,0,6.3-2.8,6.3-6.3
				C508.1,425.7,505.3,422.9,501.8,422.9z"/>
		</g>
		<g id="XMLID_10_">
			<path id="XMLID_97_" class="st3" d="M524,483.4c-1.3,0-2.4-1.1-2.4-2.4c-0.6-29.8-20.7-40.8-20.9-40.9c-1.2-0.6-1.6-2.1-1-3.3
				c0.6-1.2,2.1-1.6,3.3-1c0.9,0.5,22.8,12.5,23.5,45.1C526.4,482.3,525.4,483.4,524,483.4C524,483.4,524,483.4,524,483.4z"/>
		</g>
		<g id="XMLID_11_">
			<path id="XMLID_96_" class="st3" d="M479.9,483.4C479.9,483.4,479.9,483.4,479.9,483.4c-1.4,0-2.5-1.1-2.4-2.5
				c0.7-32.6,22.5-44.6,23.5-45.1c1.2-0.6,2.7-0.2,3.3,1c0.6,1.2,0.2,2.7-1,3.3c-0.8,0.4-20.3,11.2-20.9,40.9
				C482.3,482.4,481.2,483.4,479.9,483.4z"/>
		</g>
		<g id="XMLID_12_">
			<path id="XMLID_95_" class="st3" d="M541.4,517.4c-1.2,0-2.2-0.9-2.4-2.1c-1.9-13.9-9.7-19.4-9.7-19.5c-1.1-0.8-1.4-2.3-0.6-3.4
				s2.3-1.4,3.4-0.6c0.4,0.3,9.6,6.8,11.8,22.8c0.2,1.3-0.8,2.5-2.1,2.7C541.7,517.4,541.5,517.4,541.4,517.4z"/>
		</g>
		<g id="XMLID_13_">
			<path id="XMLID_14_" class="st3" d="M501.8,574.2c-9.5,0-17.3-7.7-17.3-17.3c0-9.5,7.7-17.3,17.3-17.3s17.3,7.7,17.3,17.3
				C519.1,566.5,511.3,574.2,501.8,574.2z M501.8,544.5c-6.8,0-12.4,5.6-12.4,12.4c0,6.8,5.6,12.4,12.4,12.4
				c6.8,0,12.4-5.6,12.4-12.4C514.2,550.1,508.7,544.5,501.8,544.5z"/>
		</g>
		<g id="XMLID_15_">
			<path id="XMLID_92_" class="st3" d="M538.1,595.7h-72.6c-1.3,0-2.4-1.1-2.4-2.4s1.1-2.4,2.4-2.4h72.6c1.3,0,2.4,1.1,2.4,2.4
				S539.4,595.7,538.1,595.7z"/>
		</g>
		<g id="XMLID_16_">
			<path id="XMLID_91_" class="st3" d="M507.8,626.9c-1.3,0-2.4-1.1-2.4-2.4v-31.1c0-1.3,1.1-2.4,2.4-2.4c1.3,0,2.4,1.1,2.4,2.4
				v31.1C510.3,625.8,509.2,626.9,507.8,626.9z"/>
		</g>
		<g id="XMLID_17_">
			<path id="XMLID_90_" class="st3" d="M545.4,574.2h-7.4c-1.3,0-2.4-1.1-2.4-2.4s1.1-2.4,2.4-2.4h7.4c2.4,0,4.3-1.9,4.3-4.3v-17.2
				c0-1.8-1.5-3.3-3.3-3.3h-8.4c-1.3,0-2.4-1.1-2.4-2.4s1.1-2.4,2.4-2.4h8.4c4.5,0,8.1,3.7,8.1,8.1v17.2
				C554.6,570.1,550.5,574.2,545.4,574.2z"/>
		</g>
		<g id="XMLID_18_">
			<path id="XMLID_19_" class="st3" d="M554.9,567.1h-4.3v-19.7h2.4c5.9,0,10.7,4.8,10.7,10.7C563.8,563.1,559.8,567.1,554.9,567.1z
				 M555.5,552.8v9.4c2-0.3,3.5-2,3.5-4C559,555.8,557.6,553.8,555.5,552.8z"/>
		</g>
		<g id="XMLID_20_">
			<path id="XMLID_21_" class="st3" d="M501.8,565.5c-4.7,0-8.6-3.8-8.6-8.6c0-4.7,3.8-8.6,8.6-8.6c4.7,0,8.6,3.8,8.6,8.6
				C510.4,561.7,506.5,565.5,501.8,565.5z M501.8,553.2c-2.1,0-3.7,1.7-3.7,3.7s1.7,3.7,3.7,3.7s3.7-1.7,3.7-3.7
				S503.8,553.2,501.8,553.2z"/>
		</g>
	</g>
</g>
<g id="Bush_2">
	<path id="XMLID_131_" class="st1" d="M160.1,599.1c0,0,2-16.4,15.7-13.8c0,0,16.4-28.8,35.1-14.1l16.4,12l8.5,12.1l4.8,18.2
		c0,0,35.9,5.3,47.6,39.3H140.1c0,0-6.1-23.7,12.6-34.7C152.7,618.2,147.4,607.7,160.1,599.1z"/>
	<path id="XMLID_119_" class="st0" d="M189.4,570.5c0,0,43.9,11.3,37.8,54c0,0,18.7-8.5,23.7,8.5c0,0,17.1-8.8,19.2,21.5h19.4
		c0,0-4.9-31.3-48.9-40.8c0,0-0.2-30-23.9-39.2C216.7,574.5,202.5,562.1,189.4,570.5z"/>
	<path id="XMLID_118_" class="st0" d="M193,616c0,0,11.1,2.8,10.1,15.9c0,0,18.7,3.6,17.1,20.7h16.6c0,0-0.5-18.4-19.7-23.3
		C217.2,629.3,214.2,610.2,193,616z"/>
	<g id="XMLID_170_">
		<path id="XMLID_107_" class="st3" d="M288.2,654.5c-0.7,0-1.4-0.5-1.5-1.3c-5.7-31-45.9-38-46.3-38l-1.2-0.2l-0.1-1.2
			c-1-22.1-19.7-39.8-37.1-44.1c-15.8-3.9-24.6,16.1-24.7,16.3l-0.4,1l-1,0c-4.1-0.1-7.4,1-9.6,3.2c-3.7,3.8-3.5,9.8-3.5,9.8
			c0,0.8-0.6,1.6-1.5,1.6c-0.8,0.1-1.6-0.6-1.6-1.5c0-0.3-0.3-7.4,4.3-12.1c2.7-2.7,6.3-4.1,10.9-4.1c2.1-4.2,11.8-21.1,27.8-17.1
			c18,4.4,37.6,21.9,39.4,45.7c7,1.5,42.1,10.3,47.6,40.3c0.2,0.8-0.4,1.6-1.2,1.8C288.3,654.5,288.3,654.5,288.2,654.5z"/>
	</g>
</g>
<g id="Bush">
	<path id="XMLID_124_" class="st0" d="M47.2,653c0,0-15.2-15,0-30.6c0,0,1.4-24.7,15.8-28.2c0,0-7.9-14.4,8.1-22.8
		c0,0,1.5-13.5,14.8-14.8c0,0,12.5-27.1,31.8,8.5c0,0,23.5-3.7,25.7,23.8c0,0,38.8,12.2,16.5,65L47.2,653z"/>
	<path id="XMLID_123_" class="st2" d="M63.5,653.8c0,0-11-14.1-5-28.3c0,0-4.2-23.9,19.1-33.9c0,0-27.8,3.3-30.3,30.8
		c0,0-15.8,15.9,0,30.6L63.5,653.8z"/>
	<path id="XMLID_122_" class="st2" d="M77.5,591.5c0,0-8.4-10.6,5.9-12.6c0,0,1.8-22,31-21.1c0,0-10.9-24-29.2-0.9
		c0,0-14.5,5.2-14.1,14.4c0,0-14.6,10.3-8.1,22.8L77.5,591.5z"/>
	<path id="XMLID_121_" class="st1" d="M103.6,621.3c0,0,15.3-10.3,25.9,3.2c0,0,26.4-9.2,35.1,15.5l-4.7,13.8h-18.8l-3-10.6
		l-8.6-6.6l-17.5-4.6L103.6,621.3z"/>
	<path id="XMLID_120_" class="st2" d="M102.5,593.3c0,0-10.2,5.8-2.7,28c0,0-23.5,1.3-32.7,16.7c0,0-1.7-22,20.8-23.1
		C87.9,614.9,83.5,595.6,102.5,593.3z"/>
	<g id="XMLID_155_">
		<path id="XMLID_106_" class="st3" d="M159.9,656.2c-0.4,0-0.8-0.1-1.1-0.3c-1.2-0.6-1.6-2.1-1-3.3c8.2-15.7,10.2-29.5,5.9-40.8
			c-5.7-15-20.9-20.7-21-20.8l-1.6-0.6l0-1.7c0.2-8.5-1.9-14.5-6.3-18.1c-6.6-5.4-16.4-3.3-16.5-3.3l-1.8,0.4l-0.9-1.7
			c-5.8-11.4-11.6-17.4-16.8-17.4c0,0-0.1,0-0.1,0c-6.2,0.1-10.4,8.8-10.5,8.9l-0.6,1.3l-1.4,0.1c-12.7,1-12.8,14.4-12.8,15v2
			l-2,0.4c-3.9,0.7-6.4,2.2-7.5,4.6c-2.4,4.9,1.3,12,1.4,12.1c0.6,1.2,0.2,2.6-1,3.3c-1.2,0.6-2.6,0.2-3.3-1
			c-0.2-0.4-4.9-9.4-1.4-16.5c1.6-3.4,4.7-5.6,9.1-6.8c0.6-6.4,4.5-16.1,15.8-17.7c1.7-3,6.6-10.3,14.1-10.4
			c7-0.1,13.9,6.1,20.5,18.5c3.7-0.5,12.2-0.8,18.7,4.5c5.2,4.3,8,11.1,8.1,20.3c4.4,2,16.8,8.7,22.2,22.9
			c4.9,12.7,2.9,27.8-6.1,44.8C161.6,655.7,160.8,656.2,159.9,656.2z"/>
	</g>
	<g id="XMLID_153_">
		<path id="XMLID_105_" class="st3" d="M67.2,640.8c-1.2,0-2.3-0.9-2.4-2.2c0-0.4-1.1-11,5.4-18.5c3.4-3.9,8.1-6.2,14.1-6.9
			c-0.6-7.9,1.9-20.3,14.9-24.2c1.3-0.4,2.6,0.3,3,1.6c0.4,1.3-0.3,2.6-1.6,3c-14.1,4.3-11.3,20.7-11.2,21.4l0.5,2.7l-2.8,0.1
			c-5.8,0.2-10.3,2.1-13.2,5.4c-5.1,5.9-4.3,14.7-4.3,14.8c0.1,1.3-0.8,2.5-2.2,2.7C67.3,640.8,67.3,640.8,67.2,640.8z"/>
	</g>
	<g id="XMLID_151_">
		<path id="XMLID_85_" class="st3" d="M47.2,655.4c-0.5,0-1-0.1-1.4-0.5c-0.3-0.2-7.9-5.8-8.8-15.1c-0.5-6.2,2-12.4,7.7-18.4
			c-0.2-3.4,0-13.2,6.7-21.4c5.6-6.9,14.3-10.9,25.9-11.8c1.4-0.1,2.5,0.9,2.6,2.2c0.1,1.3-0.9,2.5-2.2,2.6
			c-10.2,0.8-17.8,4.2-22.5,10c-6.7,8.3-5.6,18.9-5.6,19l0.1,1.2L49,624c-5.1,5.2-7.5,10.4-7.1,15.4c0.6,7,6.7,11.5,6.8,11.6
			c1.1,0.8,1.3,2.3,0.5,3.4C48.7,655,48,655.4,47.2,655.4z"/>
	</g>
	<g id="XMLID_149_">
		<path id="XMLID_84_" class="st3" d="M141.3,656.2c-1.3,0-2.4-1-2.4-2.3c-0.7-17.3-26.3-18.2-26.5-18.2l-1.9-0.1l-0.4-1.9
			c-1.5-7.6-7.9-9-8-9c-1.3-0.3-2.2-1.6-1.9-2.9c0.3-1.3,1.6-2.2,2.9-1.9c0.4,0.1,8.5,1.9,11.3,10.9c10.8,0.8,28.8,6.3,29.4,22.8
			C143.7,655,142.7,656.1,141.3,656.2C141.3,656.2,141.3,656.2,141.3,656.2z"/>
	</g>
</g>
<g id="Could">
	<path id="XMLID_130_" class="st0" d="M500.8,153.7H296.4c0,0-0.7-31.8,31.1-32.3l16.6-1.5l10.2-8.8l4.4-24l6.6-14.3l10.4-1.4
		l4.2,2.7c0,0,23.7-13.7,35.5,4.2c0,0,43,1.3,47.1,43.1C462.5,121.4,490.4,128.3,500.8,153.7z"/>
	<path id="XMLID_129_" class="st1" d="M409.4,107.2c0,0,20.3,13.2,16.4,46.5h25.8C451.5,153.7,446.4,110.6,409.4,107.2z"/>
	<path id="XMLID_128_" class="st1" d="M462.5,121.4c0,0,23.3,13.6,22.5,32.3h15.7C500.8,153.7,493.2,120.9,462.5,121.4z"/>
	<path id="XMLID_127_" class="st2" d="M325.5,153.7c0,0-15.1-13.1,7.6-21.7c22.7-8.6,31.8-7.1,32.3-38.3c0,0-1-21.5,14.6-19.6
		c0,0-18.4-12.9-21.8,15.9l-3.3,17.9l-2.5,6.2l-13.4,7.3h-11.5c0,0-34.5,3-31.1,32.3H325.5z"/>
	<path id="XMLID_126_" class="st2" d="M375.7,123.7c0,0-23,14.8-16,29.9h-16.6C343.1,153.7,339.8,130.1,375.7,123.7z"/>
	<path id="XMLID_125_" class="st2" d="M400.5,89.5c0,0,9.5,6.4,8.8,17.6l12.5,3C421.8,110.2,421.6,87.9,400.5,89.5z"/>
	<g id="XMLID_133_">
		<g id="XMLID_144_">
			<path id="XMLID_145_" class="st3" d="M503.4,156.1H294.1l-0.1-2.3c0-0.3-1.4-31.9,29.6-34.8l0.4,0l0.4,0.1
				c0.1,0,14.7,2.9,23.5-3.9c4.2-3.2,6.4-8.2,6.8-14.7l0,0c1-17.8,5.1-28.4,12.3-31.4c5.5-2.3,10.9,0.5,13.5,2.2
				c18.9-12,32.9,1.2,36.2,4.8c18.2,1.3,31.6,7.1,39.8,17.2c8.2,10,8.8,21.3,8.7,26.2c35.1,5.2,38,33.9,38,34.2L503.4,156.1z
				 M298.8,151.3h199.1c-1.6-6.8-8.3-24.3-35.6-27.4l-2.5-0.3l0.3-2.5c0-0.1,1.7-13.7-7.5-24.9c-7.5-9.1-20.1-14.3-37.3-15.4
				l-1.1-0.1l-0.7-0.9c-0.5-0.7-13.3-16.5-31.9-3.7l-1.5,1.1l-1.4-1.2c0,0-5.3-4.5-9.9-2.5c-3,1.3-8.2,6.5-9.3,27.2
				c-0.5,8.1-3.4,14.2-8.7,18.3c-9.8,7.6-24.5,5.4-27,4.9C301.9,126.1,299.1,144.6,298.8,151.3z"/>
		</g>
		<g id="XMLID_141_">
			<path id="XMLID_81_" class="st3" d="M445,134.4c-1,0-2-0.7-2.3-1.7l0,0c-0.3-0.9-7.3-22.4-32.9-22.4c0,0-0.1,0-0.1,0
				c-1.3,0-2.4-1.1-2.4-2.4c0-1.3,1.1-2.4,2.4-2.4c0,0,0.1,0,0.1,0c29.2,0,37.5,25.6,37.5,25.8c0.4,1.3-0.3,2.6-1.6,3
				C445.4,134.4,445.2,134.4,445,134.4z"/>
		</g>
		<g id="XMLID_136_">
			<path id="XMLID_80_" class="st3" d="M422.3,109.6c-1.2,0-2.2-0.9-2.4-2.1l0,0c-0.1-0.7-2.9-17.8-21-15.4
				c-1.3,0.2-2.5-0.8-2.7-2.1c-0.2-1.3,0.8-2.5,2.1-2.7c22.9-3.1,26.4,19.3,26.4,19.5c0.2,1.3-0.7,2.6-2.1,2.7
				C422.5,109.6,422.4,109.6,422.3,109.6z"/>
		</g>
		<g id="XMLID_134_">
			<path id="XMLID_79_" class="st3" d="M348.4,141.3c-0.3,0-0.6-0.1-0.9-0.2c-1.2-0.5-1.8-1.9-1.3-3.2c6.8-16,28.6-16.6,29.5-16.7
				c0,0,0,0,0,0c1.3,0,2.4,1.1,2.4,2.4c0,1.3-1,2.4-2.4,2.5c-0.2,0-19.6,0.6-25.2,13.7C350.2,140.8,349.3,141.3,348.4,141.3z"/>
		</g>
	</g>
</g>
<g id="Hair_4_">
	<polygon id="XMLID_269_" class="st4" points="383.2,329.5 383.7,304.7 374.6,280.7 376.1,255.7 383.9,236.3 388.1,222.8 
		387.6,205.8 380.8,195.5 359.4,182.8 336.2,178.1 301.9,181.4 292.1,172.9 277.1,163.7 246.6,159.9 213,171.3 168.6,207.6 
		145.7,228.5 109.7,252.5 95.3,257.2 85.4,258.7 69.3,256.1 67.3,269.4 71.2,287.4 89,300 98.5,321 114.3,335.4 147.9,341.1 
		159.4,341.7 171.3,352.5 188.7,362.1 205.2,365.8 226.7,361.3 237.1,357.4 246.7,353.3 259.8,359.8 296,374.8 337.9,371.7 
		362.3,358.7 376.4,343.1 	"/>
	<path id="XMLID_268_" class="st5" d="M359,360.4c0,0,10.7-48.3-8.7-125.2l-46.2-36.3l-5.8,10.1l-21.9,18.7l-31.8,8l-22.8-5.4
		l-21.5,17.2l-8.9,36.6c-33.1,55-93,36.8-93,36.8l20.2,17.5l42.8,3.8l18.6,15.1l28.4,7.7l28.5-7.7l11.5-5.9l33,20.8l0.3-2.7
		l24.4,6.6C306.2,376.3,337.3,380.3,359,360.4z"/>
	<path id="XMLID_266_" class="st5" d="M303.2,202.2c0,0-37.8,43.5-83.6,17.2c0,0-16.4,31.8-43.4,29.2l20.1,4.7l14.9-5.5l13.8-12.3
		l24.1,3.3l26.4-6.3l11.2-7.8l15.4-17.8L303.2,202.2z"/>
	<path id="XMLID_265_" class="st5" d="M147.1,278.7c0,0-46.9,30.2-73,10.8l-6.8-20C67.3,269.4,88.8,293.9,147.1,278.7z"/>
	<path id="XMLID_264_" class="st5" d="M367.8,234.9c0,0-50.9-14.1-65.4-43.4C302.5,191.5,307.9,241.6,367.8,234.9z"/>
	<path id="XMLID_263_" class="st6" d="M366.7,300.8c-11.6-30.5,14.5-62.8,14.5-62.8l-4.9,25.4l-1.7,17.3l7.9,20.8l1.8,14.6
		l-1.1,13.4l-6.7,13.7C376.4,343.1,378.4,331.3,366.7,300.8z"/>
	<path id="XMLID_262_" class="st6" d="M300.8,183.9c0,0-41.5-35.3-96.4,8.1S166,227.5,166,227.5s-72.6,71.8-96.7,28.6l13.1,2.8
		l30.4-9.5l25.7-16.2l47.4-42.1l37.9-23.6l20.4-5.5l22.9-1.3l24.9,12.1L300.8,183.9z"/>
	<path id="XMLID_261_" class="st6" d="M380.8,240.2c0,0,17.3-56.7-80.1-56.3l10.2-5.2l29.8-0.2l15.1,3.1l9.7,3.9l12,7.5l8.3,6.7
		l1.9,10.8l0.3,12.4L380.8,240.2z"/>
	<g id="XMLID_257_">
		<path id="XMLID_259_" class="st7" d="M122.2,341.1c-1.1-0.4-2.3-0.8-3.4-1.3c-15.9-6.7-27.4-21-33.9-42.7c-0.5-1.6,0.4-3.3,2-3.8
			c1.6-0.5,3.3,0.4,3.8,2c6,19.8,16.2,32.9,30.4,38.8c25.3,10.6,55.2-4.8,55.5-5c1.5-0.8,3.4-0.2,4.1,1.3c0.8,1.5,0.2,3.4-1.3,4.1
			C178.2,335.3,149.3,350.2,122.2,341.1z"/>
	</g>
	<g id="XMLID_255_">
		<path id="XMLID_256_" class="st7" d="M255.5,229.8c-0.7-0.2-1.2-0.9-1.4-1.6c-0.2-1.1,0.6-2.1,1.7-2.3c19.1-2.7,34-23.9,34.1-24.1
			c0.6-0.9,1.9-1.1,2.8-0.5c0.9,0.6,1.1,1.9,0.5,2.8c-0.6,0.9-16.1,22.8-36.9,25.8C256.1,230,255.8,229.9,255.5,229.8z"/>
	</g>
	<g id="XMLID_253_">
		<path id="XMLID_254_" class="st7" d="M236.1,229.4c-1.9-0.6-3.8-1.5-5.7-2.9c-0.9-0.6-1.2-1.9-0.5-2.8c0.6-0.9,1.9-1.2,2.8-0.5
			c6.6,4.5,14,3.3,14.1,3.3c1.1-0.2,2.1,0.5,2.3,1.6c0.2,1.1-0.5,2.1-1.6,2.3C247.2,230.5,242.1,231.4,236.1,229.4z"/>
	</g>
	<g id="XMLID_251_">
		<path id="XMLID_252_" class="st7" d="M378,216.4c-0.6-0.2-1.1-0.7-1.3-1.3l0,0c-0.3-1.1-8.5-25.7-49.8-23.9
			c-1.1,0-2.1-0.8-2.1-1.9c0-1.1,0.8-2.1,1.9-2.1c44.6-1.9,53.5,25.6,53.9,26.8c0.3,1.1-0.3,2.2-1.3,2.5
			C378.8,216.6,378.3,216.6,378,216.4z"/>
	</g>
	<g id="XMLID_247_">
		<path id="XMLID_250_" class="st7" d="M362.4,344.2c-0.3-0.1-0.6-0.3-0.9-0.6c-0.7-0.8-0.7-2.1,0.2-2.9l0,0
			c0.5-0.5,12.4-11.5,7.1-31.1c-0.3-1.1,0.3-2.2,1.4-2.5c1.1-0.3,2.2,0.3,2.5,1.4c6,22.1-7.7,34.7-8.3,35.2
			C363.8,344.3,363.1,344.4,362.4,344.2z"/>
	</g>
	<g id="XMLID_243_">
		<path id="XMLID_244_" class="st7" d="M123.4,328.5c-8.3-2.8-15.7-8.5-19.5-19.3c-0.4-1.1,0.2-2.2,1.2-2.6c1.1-0.4,2.2,0.2,2.6,1.2
			c10.6,30,54.4,15.5,54.8,15.3c1.1-0.4,2.2,0.2,2.6,1.3c0.4,1.1-0.2,2.2-1.3,2.6C163.5,327.2,141.3,334.6,123.4,328.5z"/>
	</g>
	<g id="XMLID_241_">
		<path id="XMLID_242_" class="st7" d="M85.2,270.6c-0.4-0.1-0.8-0.3-1.2-0.4c-1-0.4-1.6-1.6-1.1-2.6c0.4-1,1.6-1.5,2.6-1.1
			c0.3,0.1,0.7,0.3,1,0.4c32,10.8,88.9-54.2,89.5-54.9c0.7-0.8,2-0.9,2.9-0.2c0.8,0.7,0.9,2,0.2,2.9
			C176.6,217.3,119.8,282.2,85.2,270.6z"/>
	</g>
	<g id="XMLID_239_">
		<path id="XMLID_240_" class="st7" d="M187,364.6c-2.9-1-5.5-2.1-7.9-3.3c-15.4-7.9-22.8-20.4-23.1-20.9c-0.9-1.5-0.4-3.3,1.1-4.2
			c1.5-0.9,3.3-0.4,4.2,1.1l0,0c0.1,0.1,7,11.6,20.9,18.7c18.6,9.5,40.4,7.1,64.9-7l1.9-1.1l1.7,1.5c0.3,0.3,30,26.3,65.9,24
			c20.5-1.3,39.2-11.5,55.6-30.2c5-5.7,15.4-21.9,3.6-48.3c-12.6-28,3.4-56.1,4.8-58.4c0.8-1.5,12.7-26.4-1.6-38.4
			c-13.2-11.1-33.8-22.7-76.3-13.5l-1.8,0.4l-1.2-1.4c-0.1-0.1-8.7-10-23.7-15.5c-20-7.3-41.4-3.7-63.7,10.7
			c-25.7,16.6-40.8,30.6-54.2,42.9c-15.7,14.5-28.1,26-51,35.7l-0.2,0.1c-2.5,0.9-22.9,7.8-35.4,3.3c-1.2,5.9-2.6,18.1,4,25.9
			c5.8,6.8,16.8,9,32.6,6.5c1.7-0.3,3.2,0.9,3.5,2.6c0.3,1.7-0.9,3.2-2.6,3.5c-18,2.8-30.9-0.1-38.2-8.6
			c-11.2-13.1-4.6-34.3-4.3-35.2l1.2-3.9l3.4,2.3c7.8,5.2,26.8,0.3,33.6-2.1c21.9-9.3,33.9-20.4,49.2-34.5
			c13.5-12.5,28.9-26.6,55-43.5c30-19.4,54.3-16.8,69.5-11.2c13.1,4.9,21.6,12.7,24.7,15.8c34.3-7.1,59-2.4,79.8,15.2
			c18.4,15.5,3.7,44.8,3.1,46l-0.1,0.2c-0.2,0.3-16,27.2-4.5,52.9c13.7,30.4,0,49.7-4.6,54.9c-17.5,20.1-37.7,30.9-59.9,32.3
			c-33.9,2.1-61.6-18.4-68.6-24.1C221.6,370,201.1,369.3,187,364.6z"/>
	</g>
</g>
<g id="Right_Leg">
	<polygon id="XMLID_61_" class="st8" points="332.8,536.7 330.9,557 335.5,559.3 345.4,561 353.8,559.3 366.5,549.9 368.7,528.1 
		358.1,536.6 346.2,541.1 337.3,541.1 	"/>
	<g id="XMLID_142_">
		<path id="XMLID_67_" class="st9" d="M327.5,448.4h17.6l13,4.6l10.6,7.9l4.8,14.3v18.6l-4.8,34.4l-10.6,8.4l-11.9,4.5l-13.4-4.4
			l2.4-25.8l-0.8-11.1l-6.9-10.3l-6.1-1.6l-15.2,1.9C306.3,489.8,292.2,471.1,327.5,448.4z"/>
		<path id="XMLID_64_" class="st10" d="M358.1,452.9c0,0,13.7,14-2.2,84.9l12.7-9.7l4.8-23.8l2.1-20.7l-4.7-17.8L358.1,452.9z"/>
		<path id="XMLID_63_" class="st8" d="M316.1,478.1c0,0,26.7-3.5,28.7,15.6c2,19.2-2,47.4-2,47.4l-10-4.5l2.4-25.8l-2.4-16.2
			l-2.3-5.5l-9-1.3l-15.2,1.9L316.1,478.1z"/>
		<polygon id="XMLID_59_" class="st11" points="335.5,559.3 332.8,567.4 332.8,574.9 335.5,583.3 384.5,580.3 404.2,572.5 
			396.2,563.1 380.6,554.1 365.8,552.6 353.8,559.3 345.4,561 		"/>
		<path id="XMLID_57_" class="st12" d="M353.8,559.3c0,0-4.8,14.3,16,22.6l-34.3,1.5l-2.7-10.9l0.9-7.8l1.8-5.4l7.3,1.3L353.8,559.3
			z"/>
		<g id="XMLID_327_">
			<path id="XMLID_28_" class="st13" d="M344.9,563.4c-8.9,0-15.3-4.4-15.4-4.4l-1.2-0.8l0.1-1.4c0-0.1,1.4-15.1,4-42.1
				c1.2-12-0.7-19.7-5.6-22.7c-6.9-4.4-19.4,1.3-23.6,3.9c-1.2,0.7-2.7,0.3-3.4-0.8c-0.7-1.2-0.3-2.7,0.8-3.4
				c0.7-0.4,17.9-10.7,28.8-3.9c6.6,4.1,9.2,13.3,7.8,27.4c-2.2,22-3.5,36.1-3.9,40.5c4,2.2,17.4,7.8,30.7-6.9l6.9-48
				c3-19.7,0-33.8-8.8-41.9c-12.8-11.8-34-7.1-34.2-7.1c-1.3,0.3-2.6-0.5-2.9-1.8c-0.3-1.3,0.5-2.6,1.8-2.9c1-0.2,23.9-5.3,38.6,8.3
				c10,9.3,13.5,24.9,10.3,46.2l-7.1,49.4l-0.5,0.5C360.2,560.8,351.8,563.4,344.9,563.4z"/>
		</g>
		<g id="XMLID_325_">
			<path id="XMLID_25_" class="st13" d="M404.2,574.9c-0.8,0-1.7-0.4-2.1-1.2c-13.7-22.9-37.2-18.4-38.2-18.2
				c-1.3,0.3-2.6-0.6-2.9-1.9c-0.3-1.3,0.6-2.6,1.9-2.9c0.3-0.1,27.9-5.5,43.4,20.5c0.7,1.2,0.3,2.7-0.9,3.4
				C405,574.8,404.6,574.9,404.2,574.9z"/>
		</g>
		<g id="XMLID_323_">
			<path id="XMLID_24_" class="st13" d="M334.2,585.9l-0.8-1.2c-9.2-14.4,0-26.8,0.1-26.9c0.8-1.1,2.4-1.3,3.4-0.5
				c1.1,0.8,1.3,2.4,0.5,3.4c-0.3,0.4-6.7,9.2-0.6,20.1l47.6-2.9c1.4-0.1,2.5,0.9,2.6,2.3c0.1,1.4-0.9,2.5-2.3,2.6L334.2,585.9z"/>
		</g>
		<g id="XMLID_321_">
			<path id="XMLID_23_" class="st13" d="M344.1,543.6c-0.3,0-0.5,0-0.8,0c-8-0.3-12.2-5.1-12.4-5.3c-0.9-1-0.8-2.6,0.3-3.5
				c1-0.9,2.6-0.8,3.4,0.3c0.1,0.2,3.1,3.5,9,3.6c7.2,0.2,15.6-4.4,24.4-13.4c1-1,2.5-1,3.5,0c1,1,1,2.5,0,3.5
				C361.8,538.7,352.5,543.6,344.1,543.6z"/>
		</g>
	</g>
</g>
<g id="Left_Leg">
	<path id="XMLID_60_" class="st11" d="M208,604.7l-3.6,7l-1.9,19.3c0,0,6,1.3,9,0.9c3-0.4,29.8-7.4,29.8-7.4l30.8-10l-7-9.7
		l-15.6-9.3h-5l-14.6,9.3l-11.2,1.3L208,604.7z"/>
	<path id="XMLID_76_" class="st9" d="M251.5,453.1l-9.9,27.9l-18.4,63.9l-11.7,33.4l11.2,6.1l14.3,1l13.5-6.4l12.7-22l11.4-25.4
		l9.7-30.4c0,0,32.3-4.9,43.4-52.8C327.5,448.4,277.8,460.9,251.5,453.1z"/>
	<path id="XMLID_66_" class="st8" d="M265,454.3c0,0-13.5,76.8-42.3,130.1l-11.2-6.1c0,0,31.6-104.8,40-125.2L265,454.3z"/>
	<path id="XMLID_65_" class="st10" d="M244.4,581.8c0,0,30.2-63.9,30.7-96.1c0,0,23.4,15.3,46.5-19.8c0,0-12.2,33.1-37.4,35.3
		c0,0-16,58.6-33.7,77.8L244.4,581.8z"/>
	<polygon id="XMLID_62_" class="st8" points="211.5,578.3 203.2,597.6 211.5,604.7 227.2,604.7 241.8,598 249.4,581.8 230.1,585.4 
		222.7,584.4 	"/>
	<path id="XMLID_58_" class="st12" d="M222.7,604.6c0,0-5.3,19.1,3.6,23.7l-10.8,2.7h-13l-0.1-11.7l5.7-14.6l6.3-0.6l12.9,0.6"/>
	<g id="XMLID_302_">
		<path id="XMLID_303_" class="st13" d="M220.3,607.2c-11.4,0-19.3-6-19.4-6.1l-1.6-1.2l0.9-1.8c22.5-45.8,46-145.5,46.2-146.5
			l0.7-2.9l2.7,1.2c21.2,9.6,76.6-2.7,77.1-2.8l4.1-0.9l-1.2,4c-14.1,47-36.8,52.8-43.8,53.5c-12.7,50.9-45.6,96.6-46,97l-0.3,0.4
			l-0.4,0.2C232.6,605.7,226,607.2,220.3,607.2z M205.6,598.3c4.3,2.6,16.5,8.1,30.8-1c3.2-4.5,33.8-48.5,45.4-96.7l0.5-2l2.1,0.2
			c0.3,0,24.3,0.8,39.6-46.1c-13,2.6-52.9,9.8-73.4,2.7C246.7,471.7,225.9,555.7,205.6,598.3z"/>
	</g>
	<g id="XMLID_300_">
		<path id="XMLID_26_" class="st13" d="M202.5,633.4c-1.3,0-2.4-1-2.4-2.3c-1.4-23.6,7.6-29.7,8.6-30.3c1.2-0.7,2.7-0.3,3.4,0.8
			c0.7,1.1,0.3,2.6-0.8,3.3c-0.2,0.1-7.5,5.4-6.3,25.8c0.1,1.4-1,2.5-2.3,2.6C202.6,633.4,202.5,633.4,202.5,633.4z"/>
	</g>
	<g id="XMLID_298_">
		<path id="XMLID_22_" class="st13" d="M230.2,587.8c-12.9,0-20.4-7.7-20.5-7.8c-0.9-1-0.9-2.5,0.1-3.5c1-0.9,2.5-0.9,3.5,0.1
			c0.6,0.6,14.1,14.2,36.9-0.4c1.1-0.7,2.7-0.4,3.4,0.7c0.7,1.1,0.4,2.7-0.7,3.4C244.1,585.9,236.5,587.8,230.2,587.8z"/>
	</g>
	<g id="XMLID_296_">
		<path id="XMLID_27_" class="st13" d="M272.1,616.8c-0.8,0-1.5-0.4-2-1.1c-15.1-21.9-30.6-14.5-30.8-14.5c-1.2,0.6-2.7,0.1-3.3-1.1
			c-0.6-1.2-0.1-2.7,1.1-3.3c0.2-0.1,19.5-9.3,37,16.1c0.8,1.1,0.5,2.6-0.6,3.4C273,616.7,272.5,616.8,272.1,616.8z"/>
	</g>
</g>
<g id="Skateboard">
	<polygon id="XMLID_148_" class="st14" points="393.8,589 386.1,583.7 375.9,587.8 373.2,595.7 377.1,604.2 384.5,607.2 
		392.5,604.2 396.6,599.1 	"/>
	<polygon id="XMLID_152_" class="st14" points="245.3,638.1 241.8,632.8 235.7,630.3 227.9,631 223.6,638.1 225.6,648 234.3,653.8 
		242.7,650.2 245.3,644.6 	"/>
	<polygon id="XMLID_51_" class="st15" points="238.1,624.7 245.9,633.2 270.7,625.7 267.2,615.8 	"/>
	<polygon id="XMLID_50_" class="st15" points="342.8,593 345.8,602.9 370.6,595.4 373.5,583.7 	"/>
	<g id="XMLID_203_">
		<g id="XMLID_226_">
			<path id="XMLID_40_" class="st13" d="M209.4,634.3c-3.9,0-8.3-0.7-12.5-2.8c-6.4-3.2-10.9-9.1-13.4-17.4
				c-0.4-1.3,0.3-2.7,1.6-3.1c1.3-0.4,2.7,0.3,3.1,1.6c2.1,7,5.8,11.8,10.9,14.4c9,4.5,19.7,0.8,19.8,0.8l174-52.7
				c0.2-0.1,11.2-2.9,16.2-11.7c2.8-5,3.2-11.1,1.1-18c-0.4-1.3,0.3-2.7,1.6-3.1c1.3-0.4,2.7,0.3,3.1,1.6c2.5,8.3,2,15.7-1.5,21.9
				c-6,10.6-18.6,13.8-19.1,13.9l-173.7,52.6C220.2,632.7,215.5,634.3,209.4,634.3z"/>
		</g>
		<g id="XMLID_224_">
			<path id="XMLID_39_" class="st13" d="M344.2,606l-3.7-12.3c-0.4-1.3,0.3-2.7,1.6-3.1c1.3-0.4,2.7,0.3,3.1,1.6l2.3,7.6l21.1-6.4
				l2.6-10.4c0.3-1.3,1.6-2.1,3-1.8c1.3,0.3,2.1,1.7,1.8,3l-3.2,13.1L344.2,606z"/>
		</g>
		<g id="XMLID_214_">
			<path id="XMLID_215_" class="st13" d="M384.5,609.6c-2.3,0-4.6-0.6-6.6-1.7c-3.3-1.8-5.8-4.7-6.9-8.4c-1.1-3.6-0.7-7.4,1.1-10.8
				c1.8-3.3,4.7-5.8,8.4-6.9c7.5-2.3,15.4,2,17.6,9.4c2.3,7.5-2,15.4-9.4,17.6C387.3,609.4,385.9,609.6,384.5,609.6z M384.5,586.2
				c-0.9,0-1.8,0.1-2.7,0.4c-2.4,0.7-4.3,2.3-5.5,4.5c-1.2,2.2-1.4,4.7-0.7,7c0.7,2.4,2.3,4.3,4.5,5.5c2.2,1.2,4.7,1.4,7,0.7
				c2.4-0.7,4.3-2.3,5.5-4.5c1.2-2.2,1.4-4.7,0.7-7C392.2,588.8,388.5,586.2,384.5,586.2z"/>
		</g>
		<g id="XMLID_212_">
			<path id="XMLID_36_" class="st13" d="M245.3,635.9l-10-9.1c-1-0.9-1.1-2.5-0.2-3.5c0.9-1,2.5-1.1,3.5-0.2l7.9,7.2l21.1-6.4
				l-2.3-7.6c-0.4-1.3,0.3-2.7,1.6-3.1c1.3-0.4,2.7,0.3,3.1,1.6l3.7,12.3L245.3,635.9z"/>
		</g>
		<g id="XMLID_208_">
			<path id="XMLID_209_" class="st13" d="M234.3,655.1c-2.3,0-4.6-0.6-6.6-1.7c-3.3-1.8-5.8-4.7-6.9-8.4c-1.1-3.6-0.7-7.4,1.1-10.8
				c1.8-3.3,4.7-5.8,8.4-6.9c3.6-1.1,7.4-0.7,10.8,1.1c3.3,1.8,5.8,4.8,6.9,8.4c1.1,3.6,0.7,7.4-1.1,10.8c-1.8,3.3-4.7,5.8-8.4,6.9
				C237.1,654.9,235.7,655.1,234.3,655.1z M234.3,631.7c-0.9,0-1.8,0.1-2.7,0.4c-2.4,0.7-4.3,2.3-5.5,4.5c-1.2,2.2-1.4,4.7-0.7,7
				c0.7,2.4,2.3,4.3,4.5,5.5c2.2,1.2,4.7,1.4,7,0.7c2.4-0.7,4.3-2.3,5.5-4.5c1.2-2.2,1.4-4.7,0.7-7
				C241.9,634.3,238.3,631.7,234.3,631.7z"/>
		</g>
		<g id="XMLID_206_">
			<circle id="XMLID_33_" class="st13" cx="234.3" cy="640.7" r="3.9"/>
		</g>
		<g id="XMLID_204_">
			<circle id="XMLID_32_" class="st13" cx="384.5" cy="595.3" r="3.9"/>
		</g>
	</g>
</g>
<g id="Right_Arm">
	<path id="XMLID_78_" class="st14" d="M335.8,346.9l1.4,34.2l1.3,11.3c0,0,76,23.5,97.9-45.3l-10.2-0.2l-6-7.2l-3.9-6.9
		C416.3,332.8,384.9,372.5,335.8,346.9z"/>
	<path id="XMLID_77_" class="st16" d="M336.6,371.7c0,0,52.6,31,89.6-24.8l10.2,0.2c0,0-12.3,64.5-97.9,45.3L336.6,371.7z"/>
	<path id="XMLID_54_" class="st17" d="M426.2,302.3c0,0-19.5,6.7-9.9,30.5l6.9,9.9l13.3,4.4l16.8-5.4l11.6-15.4l7.5-22L455.6,319
		l-9.1-1.3l-10.1-6.2L426.2,302.3z"/>
	<g id="XMLID_290_">
		<path id="XMLID_31_" class="st13" d="M365.8,400.1c-16.8,0-29.1-4.8-29.4-4.9c-1.3-0.5-1.9-1.9-1.4-3.2c0.5-1.3,1.9-1.9,3.2-1.4
			c2.6,1,62.9,24.4,96.2-41.1c-5.2-0.3-13.7-2.5-19-12.6c-17.4,15.9-34.3,20.7-48.4,20.7c-20.9,0-35.4-10.4-35.7-10.6
			c-1.1-0.8-1.3-2.3-0.5-3.4c0.8-1.1,2.3-1.3,3.4-0.5c1.6,1.2,39.3,28,80.3-12l2.7-2.6l1.3,3.5c5.9,15,18.9,12.7,19.4,12.6l4.7-0.9
			l-2,4.3C420.5,391,388.9,400.1,365.8,400.1z"/>
	</g>
	<g id="XMLID_288_">
		<path id="XMLID_41_" class="st13" d="M416.3,335.2c-1,0-1.9-0.6-2.3-1.6c-0.2-0.5-4.9-13.2-0.2-23.4c2.2-4.8,6.1-8.3,11.6-10.3
			c1.3-0.5,2.7,0.2,3.1,1.5c0.5,1.3-0.2,2.7-1.5,3.1c-4.3,1.5-7.2,4.1-8.8,7.7c-3.8,8.4,0.3,19.5,0.4,19.7c0.5,1.3-0.2,2.7-1.4,3.2
			C416.8,335.2,416.5,335.2,416.3,335.2z"/>
	</g>
	<g id="XMLID_286_">
		<path id="XMLID_42_" class="st13" d="M438.4,349.4c-1.2,0-2.3-0.9-2.4-2.2c-0.1-1.3,0.8-2.5,2.2-2.7c1.1-0.1,25.9-3.4,32.2-42.6
			c0.2-1.3,1.5-2.2,2.8-2c1.3,0.2,2.2,1.5,2,2.8c-6.9,43.1-35.3,46.6-36.5,46.7C438.6,349.4,438.5,349.4,438.4,349.4z"/>
	</g>
</g>
<g id="Note">
	<path id="XMLID_53_" class="st18" d="M416.3,277.2c0,0,8.2,36.3,37.4,41.5c0,0,43.1-25.1,67.2-81.1c0,0-33.5-28.9-39.3-41.7
		C481.5,195.9,432.4,264.8,416.3,277.2z"/>
	<path id="XMLID_52_" class="st19" d="M445.2,243c0,0,26.3,20.3,8.4,75.7c0,0,42-35.3,67.2-81.1c0,0-37.8-29.6-39.3-41.7l-13,14.2
		L445.2,243z"/>
	<g id="XMLID_279_">
		<path id="XMLID_280_" class="st13" d="M453.9,321.5l-1-0.1c-33.1-3.5-39.1-43.5-39.1-43.9l-0.2-1.3l1-0.9
			c21.7-19.2,63-83.4,63.4-84.1l2.7-4.1l1.7,4.6c8.4,22.5,39.4,43.7,39.7,43.9l1.6,1.1l-0.7,1.8c-15.9,42.5-66.2,80.8-68.4,82.4
			L453.9,321.5z M418.9,278.1c1.2,6.4,8.2,35,33.6,38.3c6.4-5,50.3-40.2,65.3-77.9c-6.3-4.5-28.7-21.3-38.1-40.8
			C470.4,211.9,438.3,260.2,418.9,278.1z"/>
	</g>
	<g id="XMLID_277_">
		<path id="XMLID_43_" class="st13" d="M505.3,246.6c-0.2,0-0.4,0-0.6-0.1c-17.4-7.7-30.1-29-30.6-29.9c-0.4-0.7-0.2-1.6,0.5-2.1
			c0.7-0.4,1.6-0.2,2.1,0.5c0.1,0.2,12.7,21.4,29.2,28.6c0.8,0.3,1.1,1.2,0.8,2C506.5,246.3,505.9,246.6,505.3,246.6z"/>
	</g>
	<g id="XMLID_275_">
		<path id="XMLID_46_" class="st13" d="M494.2,260.7c-0.2,0-0.4,0-0.6-0.1c-19.1-7.9-28.9-28-29.4-28.9c-0.4-0.8,0-1.6,0.7-2
			c0.8-0.4,1.7,0,2,0.7c0.1,0.2,9.7,19.9,27.8,27.4c0.8,0.3,1.1,1.2,0.8,2C495.4,260.3,494.8,260.7,494.2,260.7z"/>
	</g>
	<g id="XMLID_273_">
		<path id="XMLID_47_" class="st13" d="M482.5,274.6c-0.2,0-0.4,0-0.6-0.1c-19.5-9-27.3-30.1-27.7-31c-0.3-0.8,0.1-1.6,0.9-1.9
			c0.8-0.3,1.6,0.1,1.9,0.9c0.1,0.2,7.8,20.8,26.1,29.3c0.8,0.3,1.1,1.2,0.7,2C483.6,274.3,483,274.6,482.5,274.6z"/>
	</g>
	<g id="XMLID_271_">
		<path id="XMLID_48_" class="st13" d="M472.8,287.7c-0.1,0-0.2,0-0.4,0c-22.5-5.6-28.5-30.5-28.7-31.6c-0.2-0.8,0.3-1.6,1.1-1.8
			c0.8-0.2,1.6,0.3,1.8,1.1c0.1,0.2,5.8,24.2,26.5,29.3c0.8,0.2,1.3,1,1.1,1.8C474,287.2,473.4,287.7,472.8,287.7z"/>
	</g>
	<g id="XMLID_267_">
		<path id="XMLID_49_" class="st13" d="M459.6,302.3c-0.2,0-0.3,0-0.5-0.1c-20.7-6.7-27-30-27.2-31c-0.2-0.8,0.3-1.6,1.1-1.8
			c0.8-0.2,1.6,0.3,1.8,1.1c0.1,0.2,6.1,22.7,25.2,28.9c0.8,0.3,1.2,1.1,1,1.9C460.9,301.9,460.3,302.3,459.6,302.3z"/>
	</g>
</g>
<g id="Body">
	<path id="XMLID_75_" class="st20" d="M232.7,341.8c0,0,15.2,54.3,16.2,109.4c0,0,48.1,12.5,78.7-2.9c0,0,20.6-56.5,5.2-103.3
		C332.8,345,281,318.5,232.7,341.8z"/>
	<g id="XMLID_199_">
		<path id="XMLID_55_" class="st13" d="M248.9,454.5C248.8,454.5,248.8,454.5,248.9,454.5c-1.4,0-2.5-1.2-2.5-2.5
			c0-0.6,1.3-61.9-17.2-110l-0.9-2.3l2.3-0.9c2.4-0.9,58.4-21.3,103.4,4l1,0.5l0.2,1.1c0.5,2.5,12.7,62.8-5.4,105.8
			c-0.5,1.2-2,1.8-3.2,1.3c-1.2-0.5-1.8-2-1.3-3.2c16.2-38.5,6.9-93.4,5.3-101.8c-37.8-20.6-85-7.5-95.9-3.9
			c17.9,48.6,16.6,108.9,16.6,109.5C251.3,453.5,250.2,454.5,248.9,454.5z"/>
	</g>
</g>
<g id="Documents">
	<polygon id="XMLID_73_" class="st15" points="365.8,442 358.1,433 356,427.2 356,365.3 333.6,365.8 325.5,359.1 302,359.1 
		293.2,366.8 237,368.2 237,455.4 375.6,455.4 375.6,444.3 	"/>
	<path id="XMLID_72_" class="st21" d="M265,369.6c0,0-1.3,67,93.9,68.4l-2-13.3l-1-56.9l-13.2,0.3l-17.3-9l-23.5,0l-10,9.9
		L265,369.6z"/>
	<polygon id="XMLID_70_" class="st19" points="245.7,365.3 251.5,351.3 294.9,363 292,369.1 246,368 	"/>
	<polygon id="XMLID_69_" class="st19" points="358.1,378.8 367.6,378.8 361.8,437.2 358.1,433 356.9,424.7 356,378.8 	"/>
	<polygon id="XMLID_68_" class="st18" points="366.1,393.2 375.6,389.4 375.6,444.3 369.8,443 361.8,437.2 	"/>
	<g id="XMLID_189_">
		<path id="XMLID_190_" class="st13" d="M378.1,457.9H234.5v-92.1h56.1l11.6-9.1h25.3l11.1,8.1h19.8v55.9c0,0.2-0.5,10.6,5.4,16.7
			c2.4,2.5,5.5,4,9.4,4.4v-57.4c0-1.4,1.1-2.5,2.5-2.5c1.4,0,2.5,1.1,2.5,2.5V457.9z M239.4,453h133.8v-6.3c-5.3-0.5-9.7-2.5-13-6
			c-7.3-7.7-6.7-19.7-6.7-20.2l0-50.9H337l-11.1-8.1h-22.1l-11.6,9.1h-52.8V453z"/>
	</g>
	<g id="XMLID_187_">
		<path id="XMLID_56_" class="st13" d="M361.8,437.3c-0.1,0-0.1,0-0.2,0c-0.8-0.1-1.4-0.8-1.3-1.7l5.6-55.3H356
			c-0.8,0-1.5-0.7-1.5-1.5c0-0.8,0.7-1.5,1.5-1.5h13.3l-6,58.6C363.2,436.7,362.5,437.3,361.8,437.3z"/>
	</g>
	<g id="XMLID_185_">
		<path id="XMLID_132_" class="st13" d="M366.1,394.4c-0.6,0-1.2-0.4-1.4-1c-0.3-0.8,0.1-1.6,0.9-1.9l9.5-3.5
			c0.8-0.3,1.7,0.1,1.9,0.9c0.3,0.8-0.1,1.6-0.9,1.9l-9.5,3.5C366.5,394.4,366.3,394.4,366.1,394.4z"/>
	</g>
	<g id="XMLID_183_">
		<path id="XMLID_135_" class="st13" d="M337.3,383.3h-42.4c-0.8,0-1.5-0.7-1.5-1.5c0-0.8,0.7-1.5,1.5-1.5h42.4
			c0.8,0,1.5,0.7,1.5,1.5C338.8,382.7,338.1,383.3,337.3,383.3z"/>
	</g>
	<g id="XMLID_181_">
		<path id="XMLID_137_" class="st13" d="M244.5,369.7c-0.2,0-0.4,0-0.6-0.1c-0.8-0.3-1.1-1.2-0.8-2l7.6-18.4l46.9,12.9
			c0.8,0.2,1.3,1.1,1.1,1.9c-0.2,0.8-1,1.3-1.9,1.1l-44.4-12.2l-6.6,15.9C245.7,369.4,245.1,369.7,244.5,369.7z"/>
	</g>
</g>
<g id="Left_Arm">
	<path id="XMLID_2_" class="st17" d="M291.5,442.8l12.6-2.8l5.7-3.1c0,0-1.6-4.2-2.5-4.7c-0.9-0.5-9.3-4-9.3-4s-23,4.3-29.2,15
		l-2.9,11.2l3.1,6.7c0,0,26.3,29.1,45.2-6.7L291.5,442.8z"/>
	<path id="XMLID_138_" class="st14" d="M230.7,340.8c0,0-50,21.9-42.6,93.4c0,0,39.8,36.1,80.8,26.9l-3.1-6.7l2.9-11.2l-8.7-3.9
		l-18.2-8.8l-12.3-10.3l-5-3.6C224.4,416.6,240.2,377,230.7,340.8z"/>
	<path id="XMLID_139_" class="st16" d="M228.1,344.2c0,0-29.4,39.9-24,75.6c0,0,5,31.7,61.7,34.7l3.1,6.7c0,0-51.9,9.4-80.8-26.9
		C188.1,434.3,178.6,370.6,228.1,344.2z"/>
	<g id="XMLID_140_">
		<path id="XMLID_143_" class="st13" d="M255,464.5c-44,0-67.7-27.4-68.8-28.7l-0.4-0.5l-0.1-0.7c-10.9-66.2,43.3-95.7,43.9-96l0,0
			c1.3-0.7,3-0.1,3.5,1.4l0,0c0.4,1.3,10.3,31.4-5.7,76.1c2.3,1,4.5,2.5,6.4,4.6c10.2,11.6,35.7,19.9,36,19.9l3.8,1.2l-2.8,2.8
			c-5.2,5.3,0.3,15.1,0.4,15.2l1.8,3.2l-3.6,0.5C264.3,464.2,259.5,464.5,255,464.5z M190.4,433.2c3.7,3.9,30,30.3,74.9,25.9
			c-1.4-3.7-2.9-9.7-0.3-14.8c-7.5-2.7-26.1-10.1-35-20.3c-1.8-2-3.9-3.2-6.3-3.9c-0.2,0-0.3-0.1-0.5-0.1c0,0,0,0,0,0
			c-10.2-2.6-23.7,4.5-23.9,4.6c-1.2,0.6-2.7,0.2-3.3-1c-0.6-1.2-0.2-2.7,1-3.3c0.7-0.4,13.9-7.3,25.5-5.4
			c12.8-35.4,8.6-61.7,6.6-70.2C218.6,351.2,181.7,378.6,190.4,433.2z"/>
	</g>
	<g id="XMLID_150_">
		<path id="XMLID_154_" class="st13" d="M291.5,474.4c-13.1,0-23.9-11-24.4-11.5c-0.9-1-0.9-2.5,0-3.5c1-0.9,2.5-0.9,3.5,0
			c0.1,0.1,11.6,11.7,23.5,9.8c6.4-1,12-5.6,16.6-13.8l-27.3-13.8l7.6-1.1c7.5-1.1,15.1-3.4,16.6-5c-0.4-0.4-1.4-1.2-4.3-2.4
			c-17.1-6.7-32.5,11.2-32.6,11.4c-0.9,1-2.4,1.2-3.5,0.3c-1-0.9-1.2-2.4-0.3-3.5c0.7-0.8,17.9-20.7,38.2-12.8
			c3.4,1.3,8,3.6,7.5,7.4c-0.5,4-7.1,6.5-13.7,8.1l18.4,9.3l-1.1,2.2c-5.6,11-12.8,17.3-21.4,18.6
			C293.8,474.3,292.6,474.4,291.5,474.4z"/>
	</g>
</g>
<g id="Neck">
	<path id="XMLID_156_" class="st17" d="M265,310v23.8c0,0,25.7,18.6,34.3-1c0-3.9,0-21.5,0-21.5S288.2,300.6,265,310z"/>
	<g id="XMLID_166_">
		<path id="XMLID_158_" class="st13" d="M285.5,345.8c-10.9,0-21.7-9.8-22.2-10.3l-0.8-0.7V310c0-1.4,1.1-2.5,2.5-2.5
			c1.4,0,2.5,1.1,2.5,2.5v22.7c2.8,2.3,12.4,9.7,20.5,8c3.8-0.8,6.7-3.6,8.9-8.4v-21c0-1.4,1.1-2.5,2.5-2.5c1.4,0,2.5,1.1,2.5,2.5
			v22l-0.2,0.5c-2.9,6.6-7.1,10.5-12.6,11.7C287.8,345.7,286.6,345.8,285.5,345.8z"/>
	</g>
</g>
<g id="Ramp">
	<path id="XMLID_157_" class="st22" d="M299.3,651.6c0,0,23.7-8.9,26.6-10.7c2.8-1.8,52.2-26,52.2-26l60.4-36.6
		c0,0,51.8,40.5,55.5,75.1H311.9L299.3,651.6z"/>
	<path id="XMLID_159_" class="st23" d="M438.4,578.3c0,0-68.6,48.6,6.7,75.5L302,652.6l9.9-5.8l55.6-26.7l35-20L438.4,578.3z"/>
	<path id="XMLID_160_" class="st24" d="M352.9,651.8l20.9-9.7l20.3-10.2l22.1-11.8l22.9-13c0,0,25.2,20.5,27.1,48.3L352.9,651.8z"/>
	<g id="XMLID_161_">
		<path id="XMLID_162_" class="st13" d="M493.9,655.9c-1.1,0-2.1-0.7-2.4-1.8c-11.4-43.6-45.8-68.1-53-72.8
			c-60.8,42.4-137.6,72.4-138.3,72.7c-1.3,0.5-2.7-0.1-3.2-1.4c-0.5-1.3,0.1-2.7,1.4-3.2c0.8-0.3,78.1-30.6,138.6-73.1l1.3-0.9
			l1.4,0.8c1.8,1,43.4,26.1,56.6,76.6c0.3,1.3-0.4,2.7-1.8,3C494.3,655.8,494.1,655.9,493.9,655.9z"/>
	</g>
	<g id="XMLID_163_">
		<path id="XMLID_164_" class="st13" d="M348.2,655.3c-0.6,0-1.2-0.4-1.4-0.9c-0.3-0.8,0.1-1.7,0.8-2c0.4-0.2,39.3-16.3,90.6-46.5
			l0.8-0.5l0.8,0.5c1,0.7,24.8,17,27.9,46.6c0.1,0.8-0.5,1.6-1.3,1.7c-0.9,0.1-1.6-0.5-1.7-1.3c-2.6-25.3-21.7-40.8-25.8-43.8
			c-51,30.1-89.7,46.1-90.1,46.2C348.6,655.2,348.4,655.3,348.2,655.3z"/>
	</g>
</g>
<g id="Head_5_">
	<g id="XMLID_219_">
		<polygon id="XMLID_238_" class="st17" points="355,238.7 356.9,295.9 352.3,308.7 337.4,314.8 291.1,316.3 230.7,318.3 
			214.4,317.2 212.6,315.8 205.4,307.2 202.1,254.6 214.5,245.2 225,235.4 249.1,238.7 278.2,233 304,207.2 319,222.8 345.7,232 		
			"/>
		<polygon id="XMLID_237_" class="st17" points="203.7,287.9 193.1,286.3 185,275.7 185.7,267.7 191.6,258.3 202.1,254.6 		"/>
		<path id="XMLID_236_" class="st25" d="M354.6,284.3c0,0-0.9,17.4-16.2,18.7s-110.2,3.5-110.2,3.5s-19.6-1.7-23.6-13.2l0.9,13.8
			l11.4,10.6l13.8,0.5l112.1-4l5.7-2.4l6.4-6.9l2.1-5.5L354.6,284.3z"/>
		<path id="XMLID_235_" class="st25" d="M309.2,213.5c0,0-24.8,41.3-79.3,32.3c0,0-9.1,13.8-24.6,17.6l-2.4-12.5l22.1-15.6l21.6,5.3
			l25.3-6.4l20-15l10.1-12.5L309.2,213.5z"/>
		<path id="XMLID_234_" class="st25" d="M355.2,244.6c0,0-35.7-3.9-59.5-28.1l8.3-9.3l12.3,14l20.9,11.1l14.3,3.8L355.2,244.6z"/>
		<path id="XMLID_233_" class="st26" d="M316.4,269.6c0,0,0.2-10.3-6.2-19.6l-2.2,26.6l5-1.9L316.4,269.6z"/>
		
			<ellipse id="XMLID_232_" transform="matrix(-0.9945 -0.1051 0.1051 -0.9945 505.2488 561.0563)" class="st26" cx="267.4" cy="267.2" rx="7" ry="3.7"/>
		
			<ellipse id="XMLID_231_" transform="matrix(-0.9991 -4.243039e-002 4.243039e-002 -0.9991 666.5586 552.1456)" class="st26" cx="339.1" cy="269" rx="7" ry="3.7"/>
		<path id="XMLID_230_" class="st25" d="M304.6,297.6c0,0-43.5,12.2-49.5-22.7l6.7,7.2l17.5,9.6l16.6,3.9L304.6,297.6z"/>
		<g id="XMLID_228_">
			<path id="XMLID_229_" class="st7" d="M178,253.4c-1.1-0.4-2.1-0.8-3.2-1.2c-1.6-0.6-2.3-2.4-1.7-4c0.6-1.6,2.4-2.3,4-1.7
				c27.3,11.3,44.7-11.9,45.4-12.9l1.3-1.8l2.1,0.7c45,14.9,75.3-26.7,75.6-27.1l2.5-3.5l2.5,3.4c25,34.2,58.3,27.5,58.6,27.5
				c1.7-0.4,3.3,0.7,3.6,2.4c0.4,1.7-0.7,3.3-2.4,3.6c-1.5,0.3-35.4,7.1-62.4-26.7c-3.4,4.1-10.2,11.3-19.9,17.6
				c-18.2,11.9-38.3,15.1-58,9.2C221.1,244.7,203.4,261.9,178,253.4z"/>
		</g>
		<g id="XMLID_223_">
			<path id="XMLID_227_" class="st7" d="M195.7,289.9c-2.9-1-5.5-2.6-7.7-4.8c-3.7-3.7-5.7-8.7-5.7-14c0-5.3,2.1-10.2,5.8-13.9
				c3.7-3.7,8.7-5.7,14-5.7c1.7,0,3.1,1.4,3.1,3.1c0,1.7-1.4,3.1-3.1,3.1c-3.6,0-7,1.4-9.6,3.9c-2.6,2.6-4,6-4,9.6
				c0,7.5,6,13.6,13.5,13.7c1.7,0,3.1,1.4,3.1,3.1c0,1.7-1.4,3.1-3.1,3.1C199.7,291,197.7,290.6,195.7,289.9z"/>
		</g>
		<g id="XMLID_221_">
			<path id="XMLID_222_" class="st7" d="M191.7,271.9c-0.1,0-0.1,0-0.2-0.1c-1-0.5-1.5-1.7-1-2.7c3.2-7,11.9-7.3,12.3-7.4
				c1.1,0,2,0.9,2.1,2c0,1.1-0.9,2-2,2.1c-0.1,0-6.5,0.3-8.7,5C193.8,271.8,192.7,272.3,191.7,271.9z"/>
		</g>
	</g>
	<g id="XMLID_218_">
		<path id="XMLID_311_" class="st7" d="M215.5,320.5c-2.8-1-5.5-2.5-7.7-4.6c-4.1-3.9-6.5-9.1-6.7-14.8l-1.6-49.9
			c-0.1-1.7,1.3-3.1,3-3.2c1.7-0.1,3.1,1.3,3.2,3l1.6,49.9c0.1,4,1.8,7.8,4.8,10.5c2.9,2.8,6.8,4.2,10.8,4.1l116.5-3.8
			c4-0.1,7.8-1.8,10.5-4.8c2.8-2.9,4.2-6.8,4.1-10.8l-2-59.5c-0.1-1.7,1.3-3.1,3-3.2c1.7-0.1,3.1,1.3,3.2,3l2,59.5
			c0.2,5.7-1.8,11.1-5.7,15.2c-3.9,4.1-9.1,6.5-14.8,6.7L223,321.6C220.4,321.7,217.9,321.3,215.5,320.5z"/>
	</g>
</g>
<g id="Face_4_">
	<g id="XMLID_312_">
		<circle id="XMLID_382_" class="st7" cx="331.9" cy="255" r="6.7"/>
	</g>
	<g id="XMLID_313_">
		<circle id="XMLID_380_" class="st7" cx="276.2" cy="254.4" r="6.7"/>
	</g>
	<g id="XMLID_314_">
		<path id="XMLID_315_" class="st7" d="M305.2,279.6c-3.9-1.3-6.8-5.2-7-9.9c0-1.7,1.3-3.1,3-3.2c1.7,0,3.1,1.3,3.2,3
			c0.1,2.5,1.8,4.5,3.8,4.4c0.9,0,1.8-0.5,2.5-1.3c0.8-0.9,1.1-2.1,1.1-3.4c0-1.7,1.3-3.1,3-3.2c1.7,0,3.1,1.3,3.2,3
			c0.1,2.8-0.8,5.4-2.5,7.5c-1.8,2.2-4.3,3.4-7,3.5C307.2,280.1,306.2,280,305.2,279.6z"/>
	</g>
	<g id="XMLID_316_">
		<path id="XMLID_317_" class="st7" d="M275.7,293.8c-9.1-3-17.6-8.3-20.9-17.2c-0.6-1.6,0.2-3.4,1.8-3.9c1.6-0.6,3.4,0.2,3.9,1.8
			c6.5,17.7,42.7,17.4,43.1,17.4c1.7,0,3.1,1.3,3.1,3c0,1.7-1.3,3.1-3,3.1C302.8,298.1,288.7,298.2,275.7,293.8z"/>
	</g>
</g>
<g id="Ground">
	<g>
		<path id="XMLID_167_" class="st13" d="M54.4,656.2H37.2c-1.4,0-2.5-1.1-2.5-2.5s1.1-2.5,2.5-2.5h17.1c1.4,0,2.5,1.1,2.5,2.5
			S55.7,656.2,54.4,656.2z"/>
	</g>
	<g>
		<path id="XMLID_168_" class="st13" d="M264.1,656.2H70.5c-1.4,0-2.5-1.1-2.5-2.5s1.1-2.5,2.5-2.5h193.6c1.4,0,2.5,1.1,2.5,2.5
			S265.5,656.2,264.1,656.2z"/>
	</g>
	<g>
		<path id="XMLID_169_" class="st13" d="M396.2,655.9h-120c-1.4,0-2.5-1.1-2.5-2.5c0-1.4,1.1-2.5,2.5-2.5h120c1.4,0,2.5,1.1,2.5,2.5
			C398.7,654.8,397.6,655.9,396.2,655.9z"/>
	</g>
	<g>
		<path id="XMLID_171_" class="st13" d="M555.6,655.9H408.3c-1.4,0-2.5-1.1-2.5-2.5c0-1.4,1.1-2.5,2.5-2.5h147.2
			c1.4,0,2.5,1.1,2.5,2.5C558,654.8,556.9,655.9,555.6,655.9z"/>
	</g>
	<g>
		<path id="XMLID_172_" class="st13" d="M579.8,655.9h-15.1c-1.4,0-2.5-1.1-2.5-2.5c0-1.4,1.1-2.5,2.5-2.5h15.1
			c1.4,0,2.5,1.1,2.5,2.5C582.2,654.8,581.1,655.9,579.8,655.9z"/>
	</g>
</g>
</svg>
